<svg width="200" height="65" viewBox="0 0 200 65" fill="none" xmlns="http://www.w3.org/2000/svg">
<g clip-path="url(#clip0_948_976)">
<path d="M117.694 20.3241H110.18V4.94336H117.292C120.383 4.94336 121.94 6.53585 121.94 9.1079C121.94 10.3911 121.383 11.4336 120.429 12.121C121.739 12.8084 122.543 14.0515 122.543 15.7987C122.543 18.5483 120.676 20.3183 117.694 20.3183M113.115 7.5956V10.9868H117.298C118.298 10.9868 119.096 10.2994 119.096 9.27975C119.096 8.2601 118.407 7.5956 117.298 7.5956H113.115V7.5956ZM117.229 13.6677H113.115V17.6375H117.298C118.43 17.6375 119.544 17.1964 119.544 15.6898C119.544 14.4067 118.723 13.6734 117.235 13.6734" fill="#3F3F40"/>
<path d="M134.035 20.3244H131.231V19.2818C130.519 20.101 129.519 20.5879 128.318 20.5879C125.607 20.5879 123.803 18.5715 123.803 15.5813V8.90771H126.739V15.5813C126.739 16.2229 126.963 17.8211 128.87 17.8211C130.18 17.8211 131.093 16.8473 131.093 15.5813V8.90771H134.029V20.3244H134.035Z" fill="#3F3F40"/>
<path d="M138.574 15.7587C138.953 17.1564 140.062 18.0214 141.44 18.0214C142.417 18.0214 143.377 17.5975 143.865 16.6924H147.002C146.335 19.0181 144.313 20.5934 141.469 20.5934C138.246 20.5934 135.598 17.9354 135.598 14.6302C135.598 11.3249 138.24 8.62109 141.469 8.62109C144.698 8.62109 147.651 11.239 147.226 15.7587H138.579H138.574ZM144.307 13.3642C143.951 12.0352 142.842 11.1931 141.44 11.1931C140.039 11.1931 139.039 12.0352 138.614 13.3642H144.307Z" fill="#3F3F40"/>
<path d="M159.049 20.3245H156.113V13.651C156.113 12.9865 155.912 11.3883 153.976 11.3883C152.666 11.3883 151.752 12.3621 151.752 13.651V20.3245H148.816V8.90787H151.62V10.0134C152.355 9.14846 153.355 8.61572 154.579 8.61572C157.268 8.61572 159.049 10.6321 159.049 13.6452V20.3188V20.3245Z" fill="#3F3F40"/>
<path d="M172.079 14.6302C172.079 18.0443 169.477 20.5934 166.3 20.5934C163.123 20.5934 160.543 18.0443 160.543 14.6302C160.543 11.2161 163.123 8.62109 166.3 8.62109C169.477 8.62109 172.079 11.2161 172.079 14.6302M169.12 14.6531C169.12 12.6825 167.851 11.3077 166.3 11.3077C164.748 11.3077 163.473 12.6825 163.473 14.6531C163.473 16.6236 164.743 17.9125 166.3 17.9125C167.857 17.9125 169.12 16.5836 169.12 14.6531Z" fill="#3F3F40"/>
<path d="M178.283 20.5934C175.37 20.5934 173.216 19.0639 172.859 16.6065H175.835C176.238 17.5803 177.415 17.9354 178.283 17.9354C179.461 17.9354 180.351 17.5803 180.351 16.9158C180.351 16.2513 179.949 16.005 177.95 15.6957C175.904 15.3863 173.17 14.8307 173.17 12.2815C173.17 10.4828 174.75 8.62109 178.059 8.62109C180.684 8.62109 182.638 10.0417 183.017 12.1899H179.972C179.794 11.6571 179.15 11.239 178.059 11.239C176.703 11.239 176.146 11.7259 176.146 12.1498C176.146 12.7513 176.99 12.946 178.415 13.1694C181.259 13.6334 183.304 14.2578 183.304 16.7382C183.304 19.0009 181.213 20.5934 178.283 20.5934Z" fill="#3F3F40"/>
<path d="M125.853 35.7621L124.807 38.844H121.693L127.077 23.4575H130.788L136.165 38.844H133.052L132.006 35.7621H125.847H125.853ZM128.921 26.717L126.766 33.0354H131.081L128.926 26.717H128.921Z" fill="#3F3F40"/>
<path d="M140.285 26.1842H137.35V23.4575H140.285V26.1842ZM140.285 38.844H137.35V27.4273H140.285V38.844Z" fill="#3F3F40"/>
<path d="M152.82 32.7491H149.884V32.1705C149.884 31.506 149.683 29.9078 147.747 29.9078C146.437 29.9078 145.524 30.8816 145.524 32.1705V38.8441H142.588V27.4274H145.392V28.533C146.127 27.668 147.127 27.1353 148.35 27.1353C151.039 27.1353 152.82 29.1516 152.82 32.1648V32.7433V32.7491Z" fill="#3F3F40"/>
<path d="M156.669 34.2787C157.049 35.6764 158.157 36.5414 159.536 36.5414C160.513 36.5414 161.472 36.1175 161.961 35.2124H165.097C164.431 37.5381 162.409 39.1134 159.565 39.1134C156.342 39.1134 153.693 36.4555 153.693 33.1502C153.693 29.8449 156.336 27.1411 159.565 27.1411C162.794 27.1411 165.747 29.759 165.322 34.2787H156.675H156.669ZM162.403 31.8842C162.047 30.5552 160.938 29.7132 159.536 29.7132C158.134 29.7132 157.135 30.5552 156.715 31.8842H162.409H162.403Z" fill="#3F3F40"/>
<path d="M171.568 39.1076C168.655 39.1076 166.501 37.5781 166.145 35.1206H169.121C169.523 36.0945 170.7 36.4496 171.568 36.4496C172.746 36.4496 173.636 36.0945 173.636 35.43C173.636 34.7655 173.234 34.5191 171.235 34.2098C169.189 33.9005 166.455 33.3448 166.455 30.7957C166.455 28.997 168.035 27.1353 171.344 27.1353C173.969 27.1353 175.923 28.5559 176.302 30.704H173.257C173.079 30.1713 172.435 29.7531 171.344 29.7531C169.988 29.7531 169.431 30.24 169.431 30.6639C169.431 31.2597 170.275 31.4602 171.7 31.6836C174.544 32.1476 176.589 32.772 176.589 35.2524C176.589 37.5151 174.498 39.1076 171.568 39.1076" fill="#3F3F40"/>
<path d="M136.172 57.6276C131.972 57.6276 128.703 54.1046 128.703 49.6021C128.703 45.0996 131.972 41.5767 136.172 41.5767C139.659 41.5767 142.239 43.5472 143.198 46.6978H140.021C139.332 45.3001 137.953 44.2575 136.178 44.2575C133.644 44.2575 131.639 46.6978 131.639 49.6021C131.639 52.5064 133.638 54.9639 136.178 54.9639C137.936 54.9639 139.332 53.8812 140.021 52.4835H143.181C142.204 55.6112 139.602 57.6276 136.178 57.6276" fill="#3F3F40"/>
<path d="M147.598 44.7043H144.662V41.9775H147.598V44.7043ZM147.598 57.364H144.662V45.9473H147.598V57.364Z" fill="#3F3F40"/>
<path d="M159.939 57.3586H157.136V56.316C156.423 57.1352 155.423 57.6221 154.223 57.6221C151.511 57.6221 149.707 55.6057 149.707 52.6155V45.9419H152.643V52.6155C152.643 53.257 152.867 54.8553 154.774 54.8553C156.084 54.8553 156.998 53.8814 156.998 52.6155V45.9419H159.933V57.3586H159.939Z" fill="#3F3F40"/>
<path d="M173.256 57.3581H170.453V56.138C169.539 57.066 168.339 57.5987 166.942 57.5987C163.966 57.5987 161.496 55.0266 161.496 51.6584C161.496 48.2901 163.966 45.6951 166.942 45.6951C168.275 45.6951 169.43 46.182 170.321 47.0241V40.8604H173.256V57.3524V57.3581ZM167.385 48.4046C165.759 48.4046 164.449 49.8253 164.449 51.687C164.449 53.5487 165.759 54.9006 167.385 54.9006C169.011 54.9006 170.321 53.4628 170.321 51.687C170.321 49.9112 169.011 48.4046 167.385 48.4046Z" fill="#3F3F40"/>
<path d="M186.643 57.3583H183.839V56.1382C182.949 57.0662 181.725 57.5989 180.329 57.5989C177.353 57.5989 174.883 55.0269 174.883 51.6586C174.883 48.2903 177.353 45.6953 180.329 45.6953C181.731 45.6953 182.955 46.2281 183.839 47.1561V45.9359H186.643V57.3526V57.3583ZM180.772 48.4048C179.146 48.4048 177.836 49.8255 177.836 51.6872C177.836 53.5489 179.146 54.9008 180.772 54.9008C182.397 54.9008 183.707 53.463 183.707 51.6872C183.707 49.9114 182.397 48.4048 180.772 48.4048Z" fill="#3F3F40"/>
<path d="M200.001 57.3581H197.197V56.138C196.283 57.066 195.083 57.5987 193.687 57.5987C190.711 57.5987 188.24 55.0266 188.24 51.6584C188.24 48.2901 190.711 45.6951 193.687 45.6951C195.02 45.6951 196.174 46.182 197.065 47.0241V40.8604H200.001V57.3524V57.3581ZM194.129 48.4046C192.503 48.4046 191.193 49.8253 191.193 51.687C191.193 53.5487 192.503 54.9006 194.129 54.9006C195.755 54.9006 197.065 53.4628 197.065 51.687C197.065 49.9112 195.755 48.4046 194.129 48.4046Z" fill="#3F3F40"/>
<path d="M120.016 51.481L96.7712 6.69648C94.7662 2.72098 90.6584 0 85.8899 0H85.8784C81.1157 0 77.0079 2.72098 74.9971 6.69648L58.635 38.2198C56.808 34.9775 53.8952 32.4341 50.3792 31.0593C54.3031 28.2295 56.8597 23.6181 56.8597 18.4168C56.8597 12.3848 53.4241 7.16621 48.4029 4.57698C43.9791 2.25698 38.9291 0.945184 33.5746 0.945184H9.10031C4.06756 0.945184 0 5.00088 0 10.0075V55.4221C0 60.4287 4.06756 64.4844 9.10031 64.4844H35.5682C40.6699 64.4844 45.5245 63.4304 49.9311 61.5515L51.6086 60.7438C51.7063 60.698 51.7925 60.6522 51.8844 60.6063C53.4758 63.2357 56.3541 65.0057 59.6691 65.0057C63.3517 65.0057 66.523 62.8289 67.9536 59.6841C68.666 58.0228 70.2746 56.8485 72.1705 56.7568H99.5921C101.494 56.8485 103.097 58.0228 103.809 59.6841C105.234 62.8289 108.411 65.0057 112.094 65.0057C117.121 65.0057 121.188 60.9386 121.188 55.9491C121.188 54.3223 120.769 52.7985 120.01 51.4867" fill="#FFD305"/>
</g>
<defs>
<clipPath id="clip0_948_976">
<rect width="200" height="65" fill="white"/>
</clipPath>
</defs>
</svg>
