<svg width="200" height="65" viewBox="0 0 200 65" fill="none" xmlns="http://www.w3.org/2000/svg">
<g clip-path="url(#clip0_948_1013)">
<path d="M117.693 20.336H110.178V4.95215H117.296C120.393 4.95215 121.941 6.55267 121.941 9.1135C121.941 10.3939 121.394 11.4484 120.431 12.1262C121.753 12.8041 122.546 14.0469 122.546 15.798C122.546 18.5472 120.676 20.3172 117.693 20.3172M113.104 7.5883V10.9776H117.277C118.278 10.9776 119.071 10.2998 119.071 9.26414C119.071 8.22851 118.373 7.56947 117.277 7.56947H113.104V7.5883ZM117.221 13.6703H113.104V17.6433H117.277C118.41 17.6433 119.524 17.1914 119.524 15.6851C119.524 14.4046 118.694 13.6703 117.221 13.6703" fill="white"/>
<path d="M134.026 20.3361H131.231V19.3004C130.514 20.1101 129.513 20.5997 128.323 20.5997C125.604 20.5997 123.811 18.5849 123.811 15.591V8.92529H126.737V15.591C126.737 16.2312 126.964 17.8317 128.871 17.8317C130.174 17.8317 131.099 16.8526 131.099 15.591V8.92529H134.026V20.3361V20.3361Z" fill="white"/>
<path d="M138.558 15.7603C138.935 17.1536 140.049 18.0198 141.428 18.0198C142.41 18.0198 143.373 17.6056 143.845 16.6829H146.979C146.318 19.0178 144.298 20.5806 141.447 20.5806C138.218 20.5806 135.574 17.9257 135.574 14.6116C135.574 11.2976 138.218 8.60498 141.447 8.60498C144.675 8.60498 147.621 11.2223 147.206 15.7414H138.558V15.7603ZM144.298 13.3689C143.939 12.032 142.825 11.2035 141.428 11.2035C140.03 11.2035 139.03 12.0508 138.614 13.3689H144.298V13.3689Z" fill="white"/>
<path d="M159.045 20.3361H156.119V13.6704C156.119 13.0113 155.911 11.4108 153.985 11.4108C152.663 11.4108 151.757 12.39 151.757 13.6704V20.3361H148.83V8.90647H151.625V10.0174C152.361 9.15125 153.362 8.62402 154.589 8.62402C157.27 8.62402 159.064 10.6388 159.064 13.6515V20.3172L159.045 20.3361Z" fill="white"/>
<path d="M172.074 14.6307C172.074 18.0389 169.468 20.5997 166.296 20.5997C163.124 20.5997 160.537 18.0577 160.537 14.6307C160.537 11.2037 163.124 8.62402 166.296 8.62402C169.468 8.62402 172.074 11.2225 172.074 14.6307ZM169.11 14.6495C169.11 12.6724 167.845 11.2978 166.277 11.2978C164.71 11.2978 163.464 12.6724 163.464 14.6495C163.464 16.6266 164.729 17.907 166.277 17.907C167.826 17.907 169.11 16.5701 169.11 14.6495Z" fill="white"/>
<path d="M178.267 20.5994C175.359 20.5994 173.188 19.0742 172.848 16.6075H175.831C176.228 17.5867 177.417 17.9444 178.286 17.9444C179.456 17.9444 180.344 17.5867 180.344 16.9276C180.344 16.2686 179.947 16.0238 177.946 15.7037C175.907 15.3836 173.169 14.8375 173.169 12.2955C173.169 10.5067 174.755 8.64258 178.059 8.64258C180.684 8.64258 182.648 10.0548 183.025 12.2202H179.985C179.796 11.693 179.154 11.2599 178.078 11.2599C176.718 11.2599 176.171 11.7495 176.171 12.1637C176.171 12.7663 177.021 12.9546 178.437 13.1805C181.288 13.6513 183.327 14.2726 183.327 16.7582C183.327 19.0177 181.231 20.6182 178.305 20.6182" fill="white"/>
<path d="M125.849 35.7577L124.811 38.8457H121.695L127.077 23.4619H130.797L136.178 38.8457H133.062L132.024 35.7577H125.868H125.849ZM128.908 26.7194L126.756 33.0462H131.061L128.908 26.7194Z" fill="white"/>
<path d="M140.276 26.1922H137.35V23.4619H140.276V26.1922ZM140.276 38.8457H137.35V27.435H140.276V38.8457Z" fill="white"/>
<path d="M152.813 32.745H149.886V32.1613C149.886 31.5023 149.678 29.9018 147.752 29.9018C146.431 29.9018 145.524 30.8809 145.524 32.1613V38.827H142.598V27.4162H145.392V28.5272C146.129 27.661 147.129 27.1338 148.357 27.1338C151.038 27.1338 152.832 29.1486 152.832 32.1613V32.745H152.813Z" fill="white"/>
<path d="M156.665 34.2891C157.043 35.6825 158.157 36.5486 159.535 36.5486C160.517 36.5486 161.48 36.1344 161.952 35.2117H165.086C164.426 37.5466 162.405 39.1095 159.554 39.1095C156.325 39.1095 153.682 36.4545 153.682 33.1405C153.682 29.8264 156.325 27.1338 159.554 27.1338C162.783 27.1338 165.728 29.7511 165.313 34.2702H156.665V34.2891ZM162.405 31.8977C162.046 30.5608 160.932 29.7323 159.535 29.7323C158.138 29.7323 157.137 30.5796 156.722 31.8977H162.405V31.8977Z" fill="white"/>
<path d="M171.564 39.1092C168.656 39.1092 166.503 37.584 166.145 35.1173H169.128C169.524 36.0964 170.714 36.4542 171.583 36.4542C172.753 36.4542 173.641 36.0964 173.641 35.4374C173.641 34.7784 173.244 34.5336 171.243 34.2135C169.203 33.8934 166.466 33.3473 166.466 30.8053C166.466 29.0165 168.052 27.1523 171.356 27.1523C173.981 27.1523 175.944 28.5646 176.322 30.73H173.282C173.112 30.2027 172.451 29.7697 171.375 29.7697C170.015 29.7697 169.468 30.2592 169.468 30.6735C169.468 31.276 170.317 31.4643 171.734 31.6903C174.585 32.161 176.624 32.7824 176.624 35.2679C176.624 37.5275 174.528 39.128 171.601 39.128" fill="white"/>
<path d="M136.159 57.6376C131.948 57.6376 128.682 54.1165 128.682 49.6162C128.682 45.1159 131.948 41.5947 136.159 41.5947C139.652 41.5947 142.22 43.5718 143.183 46.7164H140.011C139.331 45.323 137.934 44.2685 136.159 44.2685C133.629 44.2685 131.627 46.7164 131.627 49.6162C131.627 52.5159 133.629 54.9826 136.159 54.9826C137.915 54.9826 139.312 53.8905 140.011 52.4971H143.164C142.182 55.6228 139.577 57.6376 136.159 57.6376" fill="white"/>
<path d="M147.583 44.7015H144.656V41.9712H147.583V44.7015ZM147.583 57.355H144.656V45.9442H147.583V57.355Z" fill="white"/>
<path d="M159.932 57.3742H157.137V56.3385C156.42 57.1482 155.419 57.6378 154.23 57.6378C151.511 57.6378 149.717 55.623 149.717 52.6291V45.9634H152.644V52.6291C152.644 53.2693 152.87 54.8698 154.777 54.8698C156.08 54.8698 157.005 53.8907 157.005 52.6291V45.9634H159.932V57.3742V57.3742Z" fill="white"/>
<path d="M173.245 57.3739H170.45V56.15C169.544 57.0726 168.335 57.6187 166.938 57.6187C163.955 57.6187 161.5 55.039 161.5 51.6873C161.5 48.3357 163.974 45.7183 166.938 45.7183C168.279 45.7183 169.431 46.2079 170.318 47.0553V40.8979H173.245V57.3927V57.3739ZM167.372 48.411C165.748 48.411 164.446 49.8232 164.446 51.6873C164.446 53.5515 165.748 54.9072 167.372 54.9072C168.996 54.9072 170.299 53.4762 170.299 51.6873C170.299 49.8985 168.996 48.411 167.372 48.411Z" fill="white"/>
<path d="M186.631 57.3738H183.837V56.1499C182.949 57.0725 181.722 57.6186 180.325 57.6186C177.341 57.6186 174.887 55.0389 174.887 51.6873C174.887 48.3356 177.36 45.7183 180.325 45.7183C181.722 45.7183 182.949 46.2455 183.837 47.187V45.963H186.631V57.3738V57.3738ZM180.759 48.4109C179.135 48.4109 177.832 49.8231 177.832 51.6873C177.832 53.5514 179.135 54.9071 180.759 54.9071C182.383 54.9071 183.686 53.4761 183.686 51.6873C183.686 49.8984 182.383 48.4109 180.759 48.4109Z" fill="white"/>
<path d="M200 57.3739H197.205V56.15C196.299 57.0726 195.091 57.6187 193.693 57.6187C190.71 57.6187 188.236 55.039 188.236 51.6873C188.236 48.3357 190.71 45.7183 193.693 45.7183C195.034 45.7183 196.186 46.2079 197.073 47.0553V40.8979H200V57.3927V57.3739ZM194.128 48.411C192.504 48.411 191.201 49.8232 191.201 51.6873C191.201 53.5515 192.504 54.9072 194.128 54.9072C195.751 54.9072 197.054 53.4762 197.054 51.6873C197.054 49.8985 195.751 48.411 194.128 48.411Z" fill="white"/>
<path d="M120.015 51.4803L96.7711 6.70336C94.7696 2.7303 90.6533 0 85.895 0C81.1367 0 77.0204 2.7303 75.0189 6.70336L58.648 38.2242C56.8165 34.9855 53.9086 32.4435 50.3965 31.0689C54.324 28.2445 56.8731 23.6312 56.8731 18.4154C56.8731 12.3899 53.4366 7.15527 48.4139 4.57561C43.9955 2.25956 38.935 0.941483 33.5914 0.941483H9.10121C4.05967 0.941483 0 5.00869 0 10.0174V55.4157C0 60.4244 4.05967 64.4916 9.10121 64.4916H35.574C40.6722 64.4916 45.5249 63.4371 49.9434 61.5542L51.6239 60.7445C51.7183 60.7068 51.8127 60.6503 51.9071 60.6127C53.4932 63.2488 56.3822 65 59.6866 65C63.3686 65 66.5408 62.8158 67.9758 59.6712C68.6934 58.0142 70.2983 56.8279 72.1866 56.7526H99.6035C101.511 56.8468 103.116 58.0142 103.833 59.6712C105.268 62.8158 108.44 65 112.122 65C117.145 65 121.205 60.9328 121.205 55.9429C121.205 54.3236 120.789 52.7984 120.034 51.4803" fill="white"/>
</g>
<defs>
<clipPath id="clip0_948_1013">
<rect width="200" height="65" fill="white"/>
</clipPath>
</defs>
</svg>
