<svg width="340" height="60" viewBox="0 0 340 60" fill="none" xmlns="http://www.w3.org/2000/svg">
<g clip-path="url(#clip0_948_1110)">
<path d="M71.6144 40.2878H61.834V20.2104H71.0927C75.1124 20.2104 77.1409 22.2922 77.1409 25.6517C77.1409 27.3288 76.4168 28.6918 75.171 29.5863C76.88 30.4807 77.9182 32.1046 77.9182 34.3887C77.9182 37.9771 75.4904 40.2878 71.6144 40.2878ZM65.6567 23.6818V28.1062H71.0927C72.3971 28.1062 73.4353 27.2117 73.4353 25.8807C73.4353 24.5496 72.5408 23.6818 71.0927 23.6818H65.6567ZM71.0075 31.6094H65.6567V36.7898H71.0927C72.5675 36.7898 74.0156 36.2095 74.0156 34.2449C74.0156 32.5678 72.9455 31.6148 71.0075 31.6148V31.6094Z" fill="white"/>
<path d="M92.9061 40.2876H89.259V38.93C88.3326 40.0001 87.0335 40.639 85.4682 40.639C81.9383 40.639 79.5957 38.0036 79.5957 34.101V25.396H83.4131V34.101C83.4131 34.9422 83.7006 37.0239 86.1923 37.0239C87.9014 37.0239 89.0833 35.7515 89.0833 34.101V25.396H92.9007V40.293L92.9061 40.2876Z" fill="white"/>
<path d="M98.8643 34.33C99.3541 36.1508 100.802 37.2795 102.596 37.2795C103.869 37.2795 105.115 36.7311 105.748 35.5439H109.827C108.959 38.5839 106.323 40.6337 102.623 40.6337C98.4277 40.6337 94.9883 37.1624 94.9883 32.8498C94.9883 28.5373 98.433 25.0127 102.623 25.0127C106.813 25.0127 110.668 28.4255 110.114 34.33H98.8589H98.8643ZM106.329 31.2047C105.866 29.469 104.417 28.3722 102.596 28.3722C100.776 28.3722 99.4712 29.469 98.9228 31.2047H106.329Z" fill="white"/>
<path d="M125.506 40.2877H121.689V31.5774C121.689 30.7096 121.428 28.6278 118.91 28.6278C117.201 28.6278 116.019 29.9003 116.019 31.5774V40.2877H112.201V25.3908H115.848V26.8389C116.801 25.7102 118.106 25.0181 119.698 25.0181C123.201 25.0181 125.512 27.6482 125.512 31.5827V40.293L125.506 40.2877Z" fill="white"/>
<path d="M142.457 32.8552C142.457 37.3115 139.071 40.6391 134.934 40.6391C130.798 40.6391 127.443 37.3115 127.443 32.8552C127.443 28.3989 130.798 25.0181 134.934 25.0181C139.071 25.0181 142.457 28.4042 142.457 32.8552ZM138.608 32.8818C138.608 30.3049 136.958 28.516 134.934 28.516C132.911 28.516 131.261 30.3103 131.261 32.8818C131.261 35.4534 132.911 37.1358 134.934 37.1358C136.958 37.1358 138.608 35.4002 138.608 32.8818Z" fill="white"/>
<path d="M150.531 40.6337C146.74 40.6337 143.934 38.6372 143.471 35.4267H147.347C147.868 36.6992 149.402 37.1624 150.531 37.1624C152.064 37.1624 153.219 36.6992 153.219 35.8314C153.219 34.9635 152.697 34.6441 150.094 34.2394C147.432 33.8348 143.875 33.1107 143.875 29.7831C143.875 27.4405 145.93 25.0127 150.238 25.0127C153.65 25.0127 156.195 26.8655 156.691 29.6713H152.729C152.5 28.9792 151.659 28.4255 150.243 28.4255C148.481 28.4255 147.757 29.0644 147.757 29.6128C147.757 30.3954 148.853 30.6563 150.706 30.9438C154.412 31.5507 157.069 32.36 157.069 35.6024C157.069 38.552 154.348 40.6391 150.531 40.6391V40.6337Z" fill="white"/>
<path d="M171.325 36.2681L169.968 40.2878H165.916L172.917 20.2104H177.746L184.748 40.2878H180.696L179.338 36.2681H171.325V36.2681ZM175.318 24.4644L172.513 32.7062H178.124L175.318 24.4644V24.4644Z" fill="white"/>
<path d="M190.157 23.7724H186.34V20.2158H190.157V23.7724ZM190.157 40.2932H186.34V25.3962H190.157V40.2932Z" fill="white"/>
<path d="M206.528 32.3335H202.71V31.5828C202.71 30.715 202.449 28.6332 199.931 28.6332C198.222 28.6332 197.04 29.9057 197.04 31.5828V40.2931H193.223V25.3961H196.87V26.8443C197.823 25.7156 199.127 25.0234 200.719 25.0234C204.222 25.0234 206.533 27.6536 206.533 31.5881V32.3388L206.528 32.3335Z" fill="white"/>
<path d="M211.593 34.33C212.083 36.1508 213.531 37.2795 215.325 37.2795C216.597 37.2795 217.843 36.7311 218.477 35.5439H222.555C221.687 38.5839 219.052 40.6337 215.352 40.6337C211.156 40.6337 207.717 37.1624 207.717 32.8498C207.717 28.5373 211.162 25.0127 215.352 25.0127C219.542 25.0127 223.396 28.4255 222.843 34.33H211.587H211.593ZM219.057 31.2047C218.594 29.469 217.146 28.3722 215.325 28.3722C213.504 28.3722 212.2 29.469 211.651 31.2047H219.057V31.2047Z" fill="white"/>
<path d="M231.031 40.6337C227.24 40.6337 224.434 38.6372 223.971 35.4267H227.847C228.368 36.6992 229.902 37.1624 231.031 37.1624C232.564 37.1624 233.719 36.6992 233.719 35.8314C233.719 34.9635 233.197 34.6441 230.594 34.2394C227.932 33.8348 224.375 33.1107 224.375 29.7831C224.375 27.4405 226.43 25.0127 230.738 25.0127C234.15 25.0127 236.695 26.8655 237.191 29.6713H233.229C233 28.9792 232.159 28.4255 230.743 28.4255C228.981 28.4255 228.257 29.0644 228.257 29.6128C228.257 30.3954 229.353 30.6563 231.206 30.9438C234.912 31.5507 237.569 32.36 237.569 35.6024C237.569 38.552 234.848 40.6391 231.031 40.6391V40.6337Z" fill="white"/>
<path d="M256.837 40.6337C251.369 40.6337 247.115 36.0336 247.115 30.1611C247.115 24.2885 251.369 19.6885 256.837 19.6885C261.379 19.6885 264.733 22.2654 265.979 26.3703H261.842C260.947 24.5494 259.153 23.1864 256.837 23.1864C253.541 23.1864 250.938 26.3703 250.938 30.1611C250.938 33.9519 253.541 37.1623 256.837 37.1623C259.121 37.1623 260.947 35.7461 261.842 33.9199H265.952C264.68 37.9982 261.293 40.6337 256.837 40.6337V40.6337Z" fill="white"/>
<path d="M271.702 23.7724H267.885V20.2158H271.702V23.7724ZM271.702 40.2932H267.885V25.3962H271.702V40.2932Z" fill="white"/>
<path d="M287.787 40.2876H284.14V38.93C283.213 40.0001 281.914 40.639 280.349 40.639C276.819 40.639 274.477 38.0036 274.477 34.101V25.396H278.294V34.101C278.294 34.9422 278.581 37.0239 281.073 37.0239C282.782 37.0239 283.964 35.7515 283.964 34.101V25.396H287.782V40.293L287.787 40.2876Z" fill="white"/>
<path d="M305.175 40.2877H301.528V38.6958C300.34 39.9097 298.78 40.6072 296.959 40.6072C293.084 40.6072 289.873 37.253 289.873 32.8552C289.873 28.4575 293.084 25.0713 296.959 25.0713C298.695 25.0713 300.202 25.7102 301.357 26.807V18.7622H305.175V40.2877V40.2877ZM297.54 28.6012C295.426 28.6012 293.722 30.454 293.722 32.8818C293.722 35.3097 295.431 37.0773 297.54 37.0773C299.648 37.0773 301.357 35.1978 301.357 32.8818C301.357 30.5658 299.648 28.6012 297.54 28.6012Z" fill="white"/>
<path d="M322.643 40.2877H318.996V38.6958C317.841 39.9097 316.249 40.6071 314.428 40.6071C310.552 40.6071 307.342 37.2529 307.342 32.8552C307.342 28.4574 310.552 25.0713 314.428 25.0713C316.249 25.0713 317.841 25.7634 318.996 26.9827V25.3907H322.643V40.2877ZM315.009 28.6012C312.895 28.6012 311.191 30.454 311.191 32.8818C311.191 35.3096 312.9 37.0772 315.009 37.0772C317.117 37.0772 318.826 35.1978 318.826 32.8818C318.826 30.5658 317.117 28.6012 315.009 28.6012Z" fill="white"/>
<path d="M340.001 40.2877H336.354V38.6958C335.167 39.9097 333.607 40.6072 331.786 40.6072C327.91 40.6072 324.699 37.253 324.699 32.8552C324.699 28.4575 327.91 25.0713 331.786 25.0713C333.521 25.0713 335.028 25.7102 336.183 26.807V18.7622H340.001V40.2877V40.2877ZM332.366 28.6012C330.252 28.6012 328.549 30.454 328.549 32.8818C328.549 35.3097 330.258 37.0773 332.366 37.0773C334.474 37.0773 336.183 35.1978 336.183 32.8818C336.183 30.5658 334.474 28.6012 332.366 28.6012Z" fill="white"/>
<path d="M38.9358 14.0453H38.8932C37.4131 13.9867 35.9968 13.449 34.6339 12.9326C34.0748 12.7249 33.5105 12.5066 32.9408 12.3309C31.8174 11.9742 30.8218 11.7825 29.8847 11.7346C29.6398 11.724 29.4109 11.7133 29.1713 11.7133C28.543 11.7133 27.6539 11.7719 27.1055 12.315C26.9458 11.6122 26.7594 10.8348 26.4719 10.0895C26.1951 9.38667 25.7745 8.55078 25.0291 8.32717C24.9013 8.28457 24.7842 8.27393 24.6564 8.27393C23.9163 8.27393 23.352 8.94477 23.0751 9.33876L22.9474 9.51978C22.6226 9.9883 22.4629 10.2172 22.5108 10.4409C22.5693 10.6645 22.8302 10.8295 23.4372 11.1809C23.6981 11.33 23.746 11.708 23.7832 11.9902V12.0221C23.8365 12.4481 23.8684 12.858 23.8631 13.2467C23.0006 12.3629 21.6909 12.0168 20.4982 11.7932C20.1788 11.7346 19.8487 11.6974 19.508 11.6974C18.145 11.6974 16.8086 12.2138 15.9195 12.5918C15.419 12.8101 14.9132 13.0497 14.434 13.2839C13.497 13.7259 12.5333 14.1944 11.5324 14.4979C11.2236 14.5937 10.9041 14.6682 10.5048 14.7374H10.4835C10.4835 14.7374 10.4782 14.7428 10.4622 14.7428H10.4356C10.2812 14.7747 10.0256 14.8599 9.96708 15.0942C9.91916 15.3284 9.95111 15.4828 10.2706 15.7331C11 16.1483 11.8997 16.3507 12.9912 16.3507C13.2148 16.3507 13.4491 16.3453 13.6993 16.324C14.0294 16.3081 14.3595 16.2655 14.7109 16.2176C15.222 16.1537 15.7331 16.0898 16.2283 16.0898C16.569 16.0898 16.8725 16.1217 17.144 16.1856C17.9586 16.3773 18.4378 17.1812 18.8637 17.9C18.9755 18.081 19.0714 18.2461 19.1725 18.4005L19.1832 18.4164C19.3748 18.7093 19.7049 19.2097 19.6837 19.5824C19.6677 19.9445 19.1672 20.2426 18.8052 20.4662C18.7093 20.5301 18.6135 20.5834 18.5443 20.6259C18.4325 20.7058 18.2887 20.7963 18.1556 20.8922C17.341 21.4086 16.2176 22.1167 16.3507 23.0751C16.404 23.5436 16.8033 23.9269 17.2825 23.9802C17.3197 23.9908 17.3676 23.9908 17.4156 23.9908C17.751 23.9908 18.0598 23.8311 18.3526 23.6873C18.4804 23.6181 18.6082 23.5489 18.7306 23.501C19.1193 23.3413 19.5133 23.2614 19.8966 23.2614C20.5568 23.2614 21.1957 23.4797 21.7814 23.9216C21.973 24.0653 22.1434 24.241 22.3138 24.4061C22.4948 24.5924 22.6865 24.7841 22.8994 24.9279C23.0645 25.0556 23.3839 25.1834 23.6555 25.1834C23.927 25.1834 24.1027 25.0556 24.1506 24.816C24.2464 24.3422 24.2411 23.8417 24.2411 23.3626C24.2358 22.9792 24.2358 22.5799 24.2837 22.2019C24.3157 21.9676 24.3795 21.4991 24.6777 21.35C24.7735 21.3021 24.896 21.2808 25.0291 21.2808C25.1782 21.2808 25.3432 21.3074 25.4976 21.3287C25.7106 21.366 25.9395 21.3979 26.1259 21.3713C26.9884 21.2542 27.7071 20.5514 28.0426 19.4813C28.2076 19.1245 28.3993 18.9701 28.7613 18.8743C29.1926 18.7731 29.4641 18.4164 29.7303 18.0757C29.7942 17.9905 29.8634 17.9053 29.9273 17.8254C30.4757 17.1812 31.1306 16.899 32.0623 16.899C32.2273 16.899 32.419 16.9097 32.6266 16.9257C32.813 16.947 33.01 16.9683 33.1963 16.9896C33.6915 17.0428 34.1706 17.1014 34.6551 17.1014C35.1822 17.1014 35.6454 17.0321 36.0767 16.8884C37.1948 16.5157 38.1851 15.7916 39.0848 15.0569L39.2179 14.9504C39.4735 14.7374 39.5374 14.599 39.4629 14.3594C39.399 14.1145 39.0795 14.0559 38.9571 14.0453M19.6624 17.3729C19.4441 17.0055 19.2151 16.6222 18.9329 16.2921C18.2781 15.4988 17.4209 15.1474 16.1218 15.1474C15.5894 15.1474 15.0144 15.2113 14.4607 15.2699C13.9229 15.3284 13.3586 15.387 12.8261 15.387C12.5493 15.387 12.2937 15.371 12.0595 15.3391C12.9912 15.0303 13.8857 14.599 14.7535 14.1837C15.6799 13.7365 16.6489 13.2733 17.6498 12.9645C18.2674 12.7675 18.917 12.6717 19.5772 12.6717C20.7804 12.6717 21.8878 12.9911 22.793 13.5874C23.5437 14.0826 23.7619 14.6097 23.5117 15.3497C23.2402 16.1324 22.7717 16.9044 22.1168 17.6497C22.0689 17.6923 22.0263 17.7562 21.9677 17.8148C21.6855 18.1555 21.2117 18.7199 20.807 18.7199C20.6846 18.7199 20.5781 18.672 20.4823 18.5602C20.1575 18.2035 19.9019 17.7829 19.657 17.3729M27.228 18.475C27.1321 19.1299 26.8766 19.6889 26.4773 20.0563C26.1259 20.3757 25.7372 20.4449 25.2208 20.4449H24.9599C24.864 20.4449 24.7735 20.4396 24.6671 20.4396C24.3423 20.4396 24.0707 20.5461 23.8578 20.7644C23.2349 21.3926 23.2455 22.7769 23.2562 23.6873V23.9855L23.1923 23.9269C22.4043 23.2028 21.6749 22.5054 20.5621 22.3403C20.3918 22.3084 20.2107 22.2977 20.0297 22.2977C19.6943 22.2977 19.3376 22.3403 18.9809 22.4255C18.6614 22.5 18.3952 22.6225 18.113 22.7556C18.0012 22.7982 17.9001 22.8514 17.7829 22.8994C17.6445 22.9526 17.4688 23.0112 17.3623 23.0112C17.3304 23.0112 17.3091 23.0058 17.2931 22.9952C17.2931 22.9792 17.2931 22.9579 17.2931 22.9313C17.3943 22.5586 17.8042 22.2871 18.1237 22.0741L18.2089 22.0155C19.0288 21.4618 19.8061 20.9028 20.5675 20.3118C21.9624 19.231 23.4904 17.8734 24.2624 16.0365C24.6937 15.0036 24.88 13.8217 24.7948 12.6025V12.5332C24.7629 12.0381 24.7309 11.5163 24.5233 11.0638C24.3583 10.6804 24.0654 10.5047 23.7513 10.3237C23.6874 10.2865 23.6342 10.2492 23.5756 10.2172C23.7247 9.94038 24.1346 9.2163 24.6032 9.2163C24.7842 9.2163 24.9652 9.32811 25.1249 9.55172C25.6786 10.3131 25.9342 11.2235 26.1578 12.0274C26.1951 12.1659 26.2377 12.315 26.2803 12.4747C26.7222 14.0293 27.4569 16.6275 27.2226 18.4697M36.7529 15.5254C35.9915 15.9567 35.3153 16.1643 34.6658 16.1643H34.6072C34.1866 16.1537 33.7607 16.0951 33.3454 16.0419C32.994 15.9939 32.6266 15.9513 32.2699 15.93C31.3808 15.8875 30.6833 16.0365 30.1296 16.3666C29.7463 16.5956 29.4748 16.9203 29.2192 17.2451C29.0382 17.4741 28.8359 17.7136 28.5963 17.9053C28.5324 17.9585 28.4419 18.0278 28.3514 18.0278H28.346C28.2396 18.0224 28.2342 17.9585 28.2396 17.8095V17.7136C28.2236 17.3782 28.1757 17.0428 28.1277 16.7233L28.1011 16.5423C28.0213 15.9833 27.9414 15.3817 27.7976 14.796C27.7817 14.6948 27.7444 14.5777 27.6965 14.4446C27.5368 13.9335 27.3344 13.2893 27.7338 12.9645C27.9733 12.7622 28.3886 12.7249 28.6708 12.7036C28.6708 12.7036 28.9743 12.6717 29.3204 12.6717H29.4481C29.8208 12.6717 30.2095 12.6983 30.5875 12.7462C31.3009 12.8367 32.041 13.0231 32.9355 13.3212C33.4199 13.4809 33.8991 13.662 34.373 13.8377C35.4591 14.2423 36.5878 14.6629 37.7538 14.8652C37.3811 15.1368 37.0563 15.3497 36.7475 15.5254" fill="white"/>
<path d="M48.8394 24.1981C48.5199 22.127 48.0035 20.0931 47.3167 18.1232C46.6458 16.2331 45.8099 14.4016 44.7983 12.6606C44.0157 11.3189 43.1372 10.0358 42.1469 8.82724C40.8904 7.28856 39.4636 5.87766 37.8823 4.66376C36.3489 3.47115 34.6771 2.47021 32.8936 1.70353C31.1259 0.947504 29.2412 0.425738 27.3245 0.170179C25.3812 -0.0853805 23.3953 -0.0587597 21.452 0.244717C19.5459 0.537545 17.6878 1.11255 15.9308 1.91117C14.1685 2.72577 12.5074 3.7693 11.0007 4.98321C9.46198 6.22906 8.05641 7.66125 6.83718 9.22123C5.6286 10.7546 4.57974 12.4051 3.69061 14.1407C2.76421 15.9509 2.01883 17.8463 1.44382 19.7897C0.847513 21.8182 0.437554 23.9105 0.21394 26.0136C-0.0203226 28.2018 -0.0469434 30.4167 0.112781 32.6102C0.27783 34.7399 0.623899 36.8589 1.15631 38.9193C1.6834 40.8946 2.37554 42.8326 3.24338 44.6747C4.08459 46.453 5.08553 48.1514 6.24087 49.7327C7.54529 51.5056 10.8622 54.6522 10.8835 54.6522C14.8021 57.852 19.5406 59.7421 24.6571 59.7421H24.6624C26.6111 59.7421 28.5544 59.4705 30.4285 58.9221C32.2866 58.3844 34.0542 57.5805 35.6994 56.5902C37.3818 55.5679 38.9205 54.338 40.3154 52.9484C41.6997 51.5642 42.9349 50.0202 44.005 48.375C45.0912 46.7139 46.0123 44.9463 46.7576 43.1094C47.535 41.1981 48.1313 39.2068 48.5519 37.1783C48.9938 35.0593 49.2334 32.903 49.2866 30.7414C49.3345 28.5532 49.1961 26.365 48.8447 24.2034M5.21331 38.4774H4.58506L5.14942 36.3424C5.20267 36.1827 5.23461 36.188 5.25058 36.2572C5.23993 37.0239 5.22929 37.7746 5.21331 38.4774ZM5.52211 32.6581L4.25497 32.0778C4.18575 32.0458 4.19108 32.0245 4.27094 32.0245H6.97561C7.05547 32.0245 7.06079 32.0512 6.98625 32.0778L5.77235 32.6581C5.70313 32.6901 5.586 32.6901 5.51679 32.6581M3.93552 31.4655L5.34642 30.4646C5.34109 30.7947 5.33044 31.1248 5.32512 31.4655H3.93552V31.4655ZM4.40404 28.0794H6.82121C6.8851 28.0794 6.89042 28.106 6.83185 28.1326L5.75105 28.6384C5.68184 28.6703 5.57536 28.6703 5.51679 28.649L4.39339 28.1326C4.32951 28.1007 4.33483 28.0847 4.39872 28.0847M4.10057 27.5895L5.39966 26.7377C5.39433 27.0039 5.38901 27.2967 5.37836 27.5895H4.09524H4.10057ZM5.86286 26.7483L7.14065 27.5895H5.86818C5.86818 27.302 5.85754 27.0252 5.85754 26.7483M5.9161 30.4699L7.33765 31.4708H5.93207C5.92143 31.1354 5.9161 30.7947 5.9161 30.4699ZM6.04388 38.4774C6.03323 37.7746 6.01726 37.0239 6.00661 36.2626C6.01726 36.2093 6.05453 36.1721 6.10245 36.3211L6.67213 38.4774H6.04388ZM24.6305 57.5858C20.8716 57.5858 17.3311 56.4571 14.2058 54.4286C16.6283 54.4126 19.0348 54.7374 21.42 55.0888C23.8159 55.4455 26.2224 55.8501 28.6342 56.0897C29.5606 56.1855 30.4977 56.2547 31.4241 56.292C29.2785 57.1332 26.9997 57.5805 24.6305 57.5805M35.6461 54.0292C33.2716 54.2795 30.8651 54.1624 28.4905 53.9015C26.1159 53.6512 23.752 53.2413 21.3934 52.9005C18.9549 52.5491 16.5058 52.2457 14.0461 52.2616C13.2102 52.2723 12.3743 52.3096 11.5437 52.3947C10.7611 51.7026 10.021 50.9466 9.30758 50.1426C11.778 49.7806 14.2963 49.7859 16.7774 49.9669C19.2744 50.1479 21.7501 50.5153 24.2258 50.8774C25.4717 51.0637 26.7122 51.25 27.9527 51.4151C28.581 51.495 31.0408 51.6866 31.6424 51.6866C34.1234 51.6866 36.6205 51.495 39.0802 51.101C38.0154 52.2031 36.8654 53.1827 35.6461 54.0346M41.3057 48.4602C38.9205 49.0352 36.4767 49.344 34.0329 49.4665C32.8084 49.5303 31.5785 49.5623 30.3539 49.4984C29.1187 49.4452 27.8835 49.2428 26.6643 49.0618C24.1992 48.7104 21.7341 48.3164 19.2584 48.0343C16.788 47.7627 14.3016 47.6083 11.8153 47.7308C10.4629 47.8 9.11059 47.9544 7.78488 48.21C7.327 47.5764 6.89574 46.9162 6.49111 46.224C8.68466 45.7715 10.9048 45.484 13.1463 45.4041C15.4091 45.3243 17.6718 45.4787 19.9133 45.7662C22.0855 46.0484 24.2365 46.453 26.4034 46.7458C28.3946 47.012 30.3859 47.1877 32.3824 47.1877H32.3984C34.4748 47.1877 36.5566 47.0067 38.6064 46.6713C40.1078 46.4264 41.5932 46.1176 43.0627 45.7396C42.5249 46.6873 41.934 47.5924 41.3057 48.4495M8.21613 40.8307C7.17792 40.1439 7.0395 39.0258 7.10339 38.8128L10.3138 31.2419C10.3831 31.1088 10.415 31.1514 10.399 31.2419L8.21613 40.8307V40.8307ZM10.3511 33.6857C10.3032 37.0825 10.2553 40.2397 10.2393 41.7518C9.65898 41.5814 9.07332 41.4057 8.57817 41.049L10.2819 33.5419C10.3245 33.4727 10.3458 33.5792 10.3564 33.6857M9.50458 27.0465H11.9164C11.9803 27.0465 11.9856 27.0731 11.9217 27.0997L10.8356 27.6162C10.7824 27.6481 10.6759 27.6481 10.612 27.6215L9.48328 27.0997C9.41939 27.0731 9.41939 27.0465 9.49925 27.0465M9.19578 26.5567L10.4682 25.7154C10.4576 25.987 10.4576 26.2691 10.4523 26.5567H9.19045H9.19578ZM10.974 25.7314L12.2305 26.5567H10.9847C10.9847 26.2745 10.974 25.9976 10.974 25.7314ZM13.5563 36.8429C13.5083 38.4721 13.4711 40.0906 13.4444 41.3471C13.4391 41.3578 13.4231 41.3684 13.4072 41.3684L12.337 36.6885L12.9067 35.3202L13.5616 36.8376L13.5563 36.8429ZM13.1197 34.8091L13.5456 33.7975C13.5882 33.7336 13.6148 33.7549 13.6255 33.8028C13.6148 34.4577 13.5935 35.1605 13.5775 35.8739L13.1197 34.8091ZM12.0495 37.3327L13.0877 41.5867C12.7257 41.7411 12.2731 41.821 11.8738 41.8795C11.7354 41.8955 11.597 41.9062 11.4532 41.9168C11.3734 41.9275 11.2775 41.9328 11.1923 41.9275C11.1923 41.3578 11.1764 40.4899 11.1657 39.4304L12.0495 37.338V37.3327ZM11.1497 38.4242C11.1338 37.0186 11.1125 35.3681 11.0805 33.6644C11.0965 33.526 11.1284 33.4248 11.1923 33.6324L11.8951 36.6566L11.1497 38.4242V38.4242ZM12.1666 36.023L11.0646 31.2472C11.0539 31.1514 11.0752 31.1088 11.1444 31.2419L12.6778 34.8091L12.1666 36.023V36.023ZM14.275 37.5084V36.811C14.2431 35.5704 14.2111 34.9901 14.1898 33.8401C14.1951 33.7602 14.2218 33.707 14.2857 33.7975L16.2024 38.5839C15.8882 39.2068 15.8297 39.4304 15.3452 39.9362L14.2803 37.5084H14.275ZM15.031 40.245C14.8447 40.4633 14.5785 40.6763 14.3655 40.8467C14.3442 40.1971 14.3229 39.3506 14.307 38.5892L15.031 40.245ZM16.9797 38.4135L19.1732 33.7017C19.136 35.054 19.088 36.9867 19.0508 38.4135H18.151C17.8262 38.4135 17.3045 38.4348 16.9797 38.4135M32.6753 32.3813H35.8431C35.9283 32.3813 35.939 32.4026 35.8857 32.4398C35.8751 32.4505 34.4376 33.1266 34.4376 33.1266C34.3417 33.1746 34.2193 33.1692 34.1447 33.132L32.6593 32.4505C32.5741 32.4132 32.5794 32.3866 32.6753 32.3866M32.3132 31.753L33.969 30.5657C33.969 30.9171 33.9531 31.7104 33.9531 31.753H32.3132ZM32.9148 27.0837C32.9148 27.0837 32.9521 27.0731 32.9681 27.0731H35.6142C35.6408 27.0731 35.6568 27.0731 35.6621 27.0837C35.6621 27.0837 35.6728 27.1104 35.6248 27.1317L34.4376 27.6907C34.3737 27.7226 34.2565 27.7226 34.1926 27.696L32.9574 27.1317C32.9149 27.1104 32.9042 27.0944 32.9148 27.0837M32.6327 26.5141L34.0489 25.5025C34.0436 25.8326 34.0436 26.168 34.0382 26.5141H32.638H32.6327ZM34.5387 25.5184L35.9656 26.5141H34.5653C34.56 26.1733 34.5547 25.8432 34.5387 25.5184M34.6133 30.5711L36.2637 31.7583H34.6399C34.6292 31.3697 34.6186 30.9597 34.6133 30.5711ZM39.4103 29.2986H42.1203C42.1948 29.2986 42.2055 29.3199 42.1309 29.3518L40.9117 29.9375C40.8425 29.9694 40.7307 29.9694 40.6615 29.9375L39.3997 29.3518C39.3304 29.3146 39.3304 29.2986 39.4103 29.2986M39.0696 28.7449L40.4911 27.7386C40.4805 28.0794 40.4805 28.4041 40.4751 28.7449H39.0696ZM41.0448 27.7386L42.4823 28.7449H41.0608C41.0608 28.4095 41.0501 28.074 41.0448 27.7386ZM40.4272 33.5632C40.3793 36.8429 40.3207 40.3728 40.2888 42.8485C39.4902 43.1254 38.798 43.1946 38.1964 43.1467L39.5434 37.1304L40.3367 33.5845C40.374 33.4993 40.4112 33.4567 40.4325 33.5632M40.2462 32.1577L37.8983 42.5823L36.876 39.7818L36.8867 39.7659L40.1024 32.0512C40.193 31.9021 40.2888 31.7956 40.2515 32.163M37.6533 43.0615C36.9133 42.8965 36.333 42.5397 35.8857 42.1511L36.6524 40.3196L37.6533 43.0562V43.0615ZM35.5929 41.8582C35.135 41.3738 34.8795 40.8999 34.773 40.6976C34.757 39.1163 34.7197 36.7577 34.6771 34.2394L36.4661 39.7446L35.5876 41.8582H35.5929ZM31.7169 40.5858H27.8356L33.6176 34.0637L31.7222 40.5858H31.7169ZM33.9318 34.2341C33.9105 35.7035 33.8572 40.4101 33.8572 40.5858H32.1269L33.9318 34.2341ZM41.1353 33.5632C41.13 33.4567 41.1832 33.4887 41.2205 33.5845L42.8391 40.5858C42.4877 41.411 41.7742 42.018 41.2525 42.364C41.2365 41.0916 41.1407 33.5898 41.1353 33.5632M43.2543 40.5432L41.2791 32.2375C41.2205 31.7317 41.343 31.9127 41.4495 32.0991L45.0699 40.5379H43.2543V40.5432ZM46.4914 36.4915C46.2252 37.8225 45.8738 39.1216 45.4479 40.4048L41.1087 30.1132L43.0148 29.2613C43.2118 29.1655 43.2118 28.8833 43.0148 28.7768C43.0148 28.7768 41.146 27.4511 41.0395 27.3766L40.9969 24.2194C41.2258 24.1874 41.4495 24.0862 41.6731 24.0437C41.9286 24.0117 42.1682 24.0543 42.4131 24.0969C42.6367 24.1342 42.871 24.1555 43.0893 24.0916C43.3023 24.033 43.4886 23.9159 43.6483 23.7828C43.1585 23.7721 42.7592 23.458 42.3226 23.261C42.1043 23.1545 41.8647 23.096 41.6198 23.0693C41.3856 23.0427 41.1034 23.0267 40.8744 23.096C40.8478 22.9149 40.8265 22.7233 40.7946 22.5156H40.6934C40.5444 23.3835 40.5497 24.3258 40.5444 25.199C40.5444 25.8113 40.5337 26.4289 40.5284 27.0465C40.5284 27.153 40.5284 27.2594 40.5177 27.3766L38.5584 28.7768C38.3668 28.8727 38.3615 29.1548 38.5584 29.256L40.4059 30.1132L36.6737 39.1962L34.7464 33.3503L36.876 32.3493C37.0943 32.2375 37.105 31.9127 36.8867 31.7903C36.8867 31.7903 34.8741 30.3847 34.6133 30.193C34.6026 29.453 34.5866 28.6544 34.5813 27.9622L36.5246 27.0465C36.7163 26.9453 36.7323 26.6631 36.5353 26.5567C36.5353 26.5567 34.7889 25.3214 34.5334 25.1404C34.5174 23.7029 34.5121 22.2707 34.4855 20.8492C34.592 20.8492 34.7038 20.8066 34.8156 20.78C34.938 20.7427 35.0552 20.7054 35.1829 20.6788C35.4332 20.6362 35.6781 20.6788 35.923 20.7161C36.1626 20.7587 36.3968 20.78 36.6311 20.7161C36.8441 20.6575 37.0251 20.5404 37.1955 20.4073C36.7056 20.3966 36.301 20.0825 35.8644 19.8855C35.6461 19.7843 35.4012 19.7204 35.167 19.6938C34.9274 19.6672 34.6505 19.6512 34.4216 19.7204C34.4003 19.5394 34.3737 19.3478 34.3364 19.1348H34.2459C34.1075 19.9334 34.1021 20.732 34.0915 21.5307C34.0862 22.2601 34.0862 22.9841 34.0702 23.7136C34.0649 24.1874 34.0542 24.6666 34.0489 25.1351L32.0683 26.546C31.8713 26.6472 31.8713 26.9347 32.0683 27.0358L34.0063 27.9516C34.0063 28.6437 33.9903 29.4583 33.9797 30.1877L31.7169 31.7796C31.488 31.8968 31.488 32.2269 31.7169 32.3333L33.7987 33.3343L27.2766 40.5751C27.1541 40.5751 26.3395 40.5858 26.2277 40.7349C26.0573 40.868 26.052 41.0756 26.1266 41.2513C26.2171 41.4909 26.4194 41.6506 26.6377 41.7784C26.7442 41.8423 26.8666 41.9008 26.9891 41.9488C27.005 41.9541 27.0157 41.9701 27.0263 41.9807C27.0263 41.9807 27.6173 43.9293 30.1303 44.8398H30.1197C30.1197 44.8398 30.1889 44.8664 30.1729 44.9143C30.1676 44.9303 30.1623 44.9356 30.1569 44.9409C30.141 44.9516 30.109 44.9516 30.0931 44.9622C27.6865 44.8131 25.3226 44.4192 22.9534 44.0518C22.0429 43.9027 21.1432 43.7696 20.2381 43.6472C19.6205 43.5673 19.0082 43.4928 18.4012 43.3863C18.3427 43.365 18.3107 43.3437 18.3001 43.3224V43.3064V43.2904V43.2851C18.3001 43.2638 18.3214 43.2532 18.332 43.2372C18.3427 43.2266 18.3533 43.2212 18.3533 43.2212C21.6915 42.2256 22.389 39.7978 22.389 39.7978C22.4316 39.7765 22.4742 39.7499 22.5115 39.7286C22.6073 39.686 22.6978 39.6487 22.7777 39.6008C22.9906 39.473 23.1983 39.308 23.2888 39.079C23.3633 38.898 23.3527 38.6957 23.1876 38.5626C23.0652 38.3976 22.1175 38.4029 22.1175 38.4029H22.1122L21.9524 38.4082C21.9418 37.8918 21.9365 36.5394 21.8992 35.6663C21.995 35.7089 22.1175 35.6716 22.208 35.6503C22.3358 35.613 22.4582 35.5704 22.586 35.5438C22.8469 35.4799 23.0918 35.4959 23.3527 35.5438C23.6029 35.5864 23.8478 35.6237 24.1034 35.5651C24.327 35.5172 24.524 35.3894 24.6997 35.2457C24.1992 35.2297 23.7839 34.8996 23.342 34.7079C23.1078 34.6068 22.8575 34.5482 22.6073 34.5269C22.3624 34.5056 22.0642 34.4843 21.8459 34.5908C21.8247 34.3778 21.8087 34.2021 21.7927 34.069H21.6969C21.5691 34.8144 21.5691 37.4073 21.5584 38.4082H19.8813C19.8334 36.5873 19.7482 34.1489 19.7056 32.5889L21.1591 29.4796C21.3615 29.5648 21.5851 29.5808 21.7874 29.6606C22.0216 29.7352 22.1973 29.8736 22.3837 30.0227C22.5594 30.1664 22.7404 30.3102 22.9534 30.3847C23.193 30.4539 23.4432 30.4486 23.6775 30.406C23.2675 30.1611 23.0705 29.7032 22.8096 29.3252C22.6712 29.1282 22.4902 28.9632 22.3038 28.8194C22.1015 28.665 21.8619 28.5159 21.617 28.4574C21.6756 28.287 21.7448 28.0527 21.7554 27.9463C21.7501 27.9303 21.7554 27.8983 21.7128 27.877C21.7022 27.877 21.6915 27.8717 21.6809 27.8717C21.617 27.8824 21.601 27.9196 21.5584 27.9729C21.4253 28.1326 21.2496 28.4414 21.223 28.4946L19.679 31.8169C19.6577 31.2951 19.6524 30.7681 19.6418 30.2463C19.6418 29.5861 19.6098 28.9312 19.5033 28.2817H19.4075C19.2744 29.075 19.2691 29.8683 19.2584 30.6722C19.2478 31.3857 19.2265 32.1151 19.2052 32.8338L16.5378 38.355L14.1526 32.4984C14.1313 31.769 14.1153 31.0556 14.1046 30.3208C14.094 29.4956 14.094 28.6757 13.9502 27.8611H13.8597C13.7213 28.665 13.7213 29.4743 13.7053 30.2836C13.7053 31.0183 13.6787 31.7583 13.6681 32.4878L12.9014 34.298L11.0326 29.9481C11.022 29.224 11.0113 28.5106 11.0007 27.8238L12.7044 27.0199C12.8748 26.94 12.8801 26.6844 12.7044 26.5939C12.7044 26.5939 11.2722 25.5557 10.9687 25.3427C10.9474 23.852 10.9368 22.3453 10.9155 20.8492C11.0273 20.8492 11.1284 20.8066 11.2349 20.78C11.3521 20.7427 11.4798 20.7054 11.6076 20.6788C11.8632 20.6362 12.0974 20.6788 12.3477 20.7161C12.5819 20.7587 12.8268 20.78 13.0558 20.7161C13.2634 20.6575 13.4498 20.5404 13.6201 20.4073C13.141 20.3966 12.7417 20.0985 12.321 19.8961C12.1028 19.795 11.8685 19.7258 11.6289 19.7045C11.3893 19.6725 11.1018 19.6512 10.8569 19.7258C10.8409 19.5288 10.8143 19.3318 10.7824 19.1348H10.6865C10.5162 20.0931 10.5375 21.0568 10.5321 22.0205C10.5215 22.9575 10.5055 23.8893 10.4949 24.821C10.4949 24.9967 10.4949 25.167 10.4842 25.3374L8.74855 26.5833C8.57817 26.6685 8.57285 26.924 8.74855 27.0145L10.447 27.8185C10.4363 28.5958 10.415 29.8576 10.415 29.9428L6.95431 38.0781L6.44319 36.2093H7.11403C7.21519 36.2093 7.31635 36.1721 7.40154 36.1348C7.46543 36.1188 7.62515 36.0656 7.62515 35.9697C7.62515 35.8899 7.48672 35.8366 7.42816 35.81C7.327 35.7781 7.22052 35.7461 7.11403 35.7461H6.32074L5.97999 34.4524C5.97467 33.9306 5.96402 33.3875 5.95337 32.8711L7.86474 31.9766C8.05641 31.8755 8.06173 31.5986 7.87539 31.4975C7.87539 31.4975 6.03856 30.1984 5.90545 30.1132C5.90545 29.7298 5.90013 29.2081 5.88416 28.8514L7.60918 28.0368C7.78488 27.9569 7.78488 27.696 7.6145 27.6055C7.6145 27.6055 6.08647 26.5087 5.84689 26.3384C5.83091 25.0872 5.82027 24.2513 5.81494 24.1555C6.01194 24.1714 6.23555 24.0596 6.42189 24.0224C6.64018 23.9798 6.85315 24.0011 7.06612 24.0383C7.26843 24.0756 7.48672 24.1075 7.69437 24.0596C7.89136 24.0064 8.06706 23.8999 8.22678 23.7721C7.7902 23.7615 7.43348 23.4793 7.05014 23.3036C6.85315 23.2131 6.63486 23.1598 6.42189 23.1439C6.20893 23.1173 5.95337 23.1013 5.75638 23.1811C5.73508 23.0108 5.70846 22.8457 5.67119 22.6594H5.57536C5.44758 23.3462 5.43693 24.033 5.4316 24.7305C5.42096 25.3268 5.41563 25.7367 5.39966 26.333L3.63737 27.5949C3.46167 27.6907 3.46167 27.9409 3.63737 28.0314L5.36239 28.846C5.36239 29.2028 5.35174 29.7245 5.34642 30.1079L3.40843 31.4868C3.21143 31.588 3.21143 31.8701 3.40843 31.966L5.2985 32.8658C5.2985 33.3822 5.2772 33.9146 5.27188 34.4364L4.93646 35.7408H4.14316C4.03668 35.7408 3.93552 35.7674 3.84501 35.7994C3.78112 35.826 3.62672 35.8792 3.62672 35.9644C3.62672 36.0496 3.76515 36.1028 3.82904 36.1241C3.93019 36.1614 4.03668 36.204 4.14316 36.204H4.80868L4.2177 38.4668H3.25935C2.6737 36.2839 2.3223 34.0477 2.20517 31.7956C2.07739 29.5435 2.1679 27.2807 2.48735 25.0393C2.7855 22.9735 3.27 20.9237 3.96746 18.9431C4.62233 17.069 5.4529 15.2482 6.47514 13.5338C7.00755 12.634 7.59853 11.7555 8.2321 10.9196C10.825 11.7875 14.1792 10.9942 14.1792 10.9942C17.198 10.4511 19.0827 10.5363 20.1742 10.7013L20.7598 10.8025C20.8237 10.4351 20.8663 10.1636 20.9781 9.81753C17.8209 8.81659 14.2644 9.30109 14.2644 9.30109C12.1028 9.50341 10.793 9.06683 10.1169 8.68349C10.1169 8.68349 11.4745 7.24065 12.5873 6.44202C13.5616 7.15014 14.7861 7.49088 15.9415 7.69852C16.7028 7.83163 17.4748 7.89019 18.2309 8.06589C18.9922 8.24158 19.7642 8.47052 20.4989 8.72608C20.7598 8.82192 21.1059 8.98697 21.2656 9.0615C21.3987 8.7527 21.5904 8.47052 21.7927 8.19899L21.3029 7.88487C20.3286 7.32051 19.4075 7.03833 18.3746 6.7242C17.6878 6.51656 17.0329 6.27697 16.3834 5.94688C15.5049 5.49433 14.9618 4.90335 14.9139 4.86608C14.9139 4.86608 16.4153 3.945 17.8315 3.42323C18.4864 4.34963 19.7003 4.86608 20.5309 5.58484C21.7022 6.58045 22.3198 7.5175 22.3784 7.61866C22.6605 7.41634 22.9108 7.26727 23.2622 7.12884C22.7936 6.10128 22.1335 4.92464 21.3295 4.17926C20.9621 3.83852 20.4138 3.24754 20.2594 2.66188C20.2594 2.66188 22.1388 2.18803 23.5869 2.16141L24.13 6.9212C24.3323 6.88393 24.6358 6.88925 24.6358 6.88925C24.6358 6.88925 24.8275 6.88393 25.1416 6.9212L25.6847 2.16673C25.6847 2.16673 26.9625 2.2253 28.006 2.43294C28.5863 2.55007 29.0229 2.66188 29.0229 2.66188C28.8578 3.24221 28.3254 3.84384 27.9687 4.17926C27.1488 4.93529 26.5152 6.10128 26.0414 7.13949C26.3182 7.26194 26.6324 7.3844 26.9199 7.62398C27.4629 6.80939 28.1444 6.11725 28.762 5.58484C29.5713 4.87672 30.7852 4.32834 31.4401 3.42323C31.6104 3.48712 32.3398 3.76398 33.5058 4.36561L34.3737 4.86608C34.347 4.88737 33.3834 5.67535 32.9042 5.94688C32.2706 6.30892 31.5998 6.51656 30.9076 6.7242C29.8748 7.033 28.959 7.32051 27.9794 7.88487L27.4842 8.18834C27.6759 8.43325 27.8622 8.72076 28.022 9.0615C28.1977 8.97632 28.5331 8.81659 28.7833 8.72608C29.5234 8.47052 30.2847 8.24158 31.0567 8.06589C31.8021 7.89019 32.5794 7.83695 33.3408 7.69852C34.4801 7.50153 35.7207 7.13416 36.6843 6.44202C37.9142 7.39505 39.1548 8.68881 39.1548 8.68881C38.4733 9.0615 37.1635 9.49808 35.0179 9.30109C35.0179 9.30109 31.4614 8.81659 28.3041 9.80688C28.4053 10.105 28.4426 10.3127 28.5118 10.7706L29.14 10.6694C30.2634 10.5097 32.0949 10.4458 35.1031 10.9888C35.1031 10.9888 38.4413 11.7821 41.0342 10.9196C41.2951 11.2551 41.54 11.5958 41.7796 11.9472C42.8923 13.5604 43.8293 15.2961 44.5854 17.0956C45.3946 18.9964 46.0016 20.9769 46.4169 22.9895C46.8588 25.1138 47.0824 27.2807 47.109 29.453C47.1356 31.8063 46.9227 34.1702 46.4648 36.4755" fill="white"/>
</g>
<defs>
<clipPath id="clip0_948_1110">
<rect width="340" height="59.7476" fill="white"/>
</clipPath>
</defs>
</svg>
