<svg width="128" height="60" viewBox="0 0 128 60" fill="none" xmlns="http://www.w3.org/2000/svg">
<g clip-path="url(#clip0_948_1134)">
<path d="M39.2262 13.9184H39.1812C37.6931 13.7818 36.2359 13.4103 34.864 12.8177C34.3015 12.6134 33.7259 12.3987 33.1484 12.2196C32.1465 11.8918 31.1069 11.693 30.0547 11.6281C29.8081 11.6206 29.5775 11.6074 29.3328 11.6074C28.5853 11.5409 27.8397 11.7533 27.2394 12.2037C27.0799 11.4539 26.8643 10.7171 26.5944 9.99964C26.4913 9.62014 26.3073 9.26744 26.055 8.96579C25.8028 8.66414 25.4881 8.42069 25.1328 8.25216C25.0113 8.21525 24.8849 8.19692 24.7579 8.19778C24.4286 8.24103 24.1134 8.3584 23.836 8.54109C23.5587 8.72377 23.3264 8.96701 23.1566 9.25246L23.0272 9.43246C22.6972 9.89559 22.536 10.1262 22.5819 10.3446C22.6279 10.5631 22.9082 10.729 23.5194 11.074C23.7847 11.2203 23.8307 11.6 23.87 11.8793V11.9112C23.9256 12.3132 23.9528 12.7185 23.9516 13.1243C22.9829 12.3183 21.797 11.8176 20.5438 11.6853C20.2116 11.6245 19.8747 11.5932 19.5369 11.5915C18.2805 11.6502 17.0472 11.9514 15.9051 12.4784C15.3988 12.694 14.887 12.9312 14.4004 13.1674C13.45 13.6376 12.4672 14.0393 11.4595 14.3693C11.1179 14.4704 10.7703 14.5502 10.4189 14.6084H10.3832C10.377 14.612 10.3699 14.6139 10.3626 14.614L10.3326 14.6206C10.1751 14.6468 9.91731 14.7312 9.86388 14.9599C9.81044 15.1887 9.84794 15.3462 10.1676 15.5909C11.0193 16.0281 11.9691 16.2386 12.9257 16.2021C13.1545 16.2021 13.3879 16.1965 13.6429 16.1777C13.9757 16.1618 14.3123 16.1187 14.6685 16.0699C15.1767 15.996 15.6889 15.9534 16.2023 15.9424C16.515 15.9412 16.827 15.9727 17.1332 16.0362C17.9573 16.2302 18.4457 17.0215 18.8741 17.733C18.9866 17.9102 19.0832 18.0771 19.1882 18.228L19.1985 18.243C19.4716 18.5739 19.6487 18.9734 19.7104 19.398C19.6926 19.7599 19.1835 20.0543 18.8179 20.2736C18.7241 20.3336 18.6238 20.3899 18.5526 20.434C18.4382 20.5155 18.2976 20.6027 18.1579 20.6946C17.331 21.2083 16.1948 21.9133 16.3288 22.8602C16.3653 23.0937 16.4781 23.3086 16.6496 23.4712C16.821 23.6339 17.0415 23.7352 17.2766 23.7593C17.32 23.7666 17.364 23.7694 17.4079 23.7677C17.7433 23.7408 18.0682 23.6376 18.3576 23.4658C18.4809 23.3971 18.6083 23.336 18.7391 23.283C19.1149 23.1264 19.5171 23.0431 19.9241 23.0374C20.6146 23.0421 21.2846 23.2726 21.8319 23.6936C22.0222 23.841 22.2017 24.0017 22.3691 24.1746C22.5508 24.365 22.7494 24.5386 22.9625 24.693C23.1893 24.8466 23.4548 24.9333 23.7285 24.9433C23.8426 24.9563 23.9575 24.9261 24.0506 24.8589C24.1437 24.7916 24.2084 24.692 24.2319 24.5796C24.3114 24.1039 24.3428 23.6215 24.3257 23.1396C24.3118 22.7559 24.3259 22.3718 24.3679 21.9902C24.3988 21.7586 24.4616 21.2908 24.7682 21.1465C24.8799 21.0961 25.0019 21.0723 25.1244 21.0771C25.2841 21.0829 25.4431 21.0992 25.6007 21.1258C25.8083 21.1736 26.0223 21.1875 26.2344 21.1671C26.7039 21.0736 27.1367 20.8472 27.4813 20.5148C27.8258 20.1824 28.0676 19.758 28.1778 19.2921C28.2378 19.1382 28.3361 19.0022 28.4634 18.897C28.5908 18.7918 28.7429 18.721 28.9053 18.6912C29.3146 18.5486 29.6612 18.2674 29.885 17.8962C29.9525 17.8109 30.0219 17.7274 30.0875 17.6477C30.3515 17.3362 30.6848 17.0908 31.0607 16.9313C31.4366 16.7717 31.8447 16.7024 32.2522 16.729C32.42 16.729 32.6122 16.7365 32.8231 16.7543C33.0106 16.774 33.2075 16.7955 33.3959 16.8199C33.8863 16.884 34.3799 16.9206 34.8744 16.9296C35.3614 16.9372 35.8466 16.867 36.3115 16.7215C37.4265 16.3029 38.4579 15.6889 39.3574 14.9084L39.4906 14.8052C39.7503 14.5934 39.814 14.4593 39.7399 14.2212C39.6659 13.983 39.3546 13.924 39.2309 13.9109L39.2262 13.9184ZM19.6776 17.209C19.4623 16.8315 19.2148 16.4733 18.9379 16.1384C18.5868 15.7381 18.146 15.4266 17.6515 15.2293C17.157 15.032 16.6228 14.9544 16.0926 15.003C15.5498 15.003 14.9676 15.0659 14.4051 15.1221C13.8553 15.1894 13.3024 15.2278 12.7485 15.2374C12.489 15.2389 12.2297 15.2229 11.9723 15.1896C12.9048 14.8653 13.8163 14.4834 14.7013 14.0459C15.6482 13.5696 16.6298 13.1656 17.6376 12.8374C18.2702 12.643 18.9286 12.5453 19.5904 12.5478C20.7422 12.5296 21.8746 12.8461 22.85 13.459C23.1769 13.5953 23.4368 13.8552 23.5732 14.182C23.7096 14.5089 23.7115 14.8764 23.5785 15.2046C23.2612 16.0482 22.7819 16.8214 22.1676 17.4808C22.1197 17.5258 22.0738 17.5849 22.0176 17.6449C21.7307 17.9843 21.2488 18.543 20.8401 18.543C20.7768 18.5429 20.7144 18.5288 20.6573 18.5015C20.6002 18.4743 20.5499 18.4346 20.5101 18.3855C20.1926 18.0222 19.9121 17.628 19.6729 17.209H19.6776ZM27.3463 18.3012C27.2823 18.8953 27.0127 19.4484 26.5841 19.8649C26.4078 20.0096 26.2046 20.1181 25.9864 20.1842C25.7681 20.2503 25.5389 20.2727 25.3119 20.2502H25.0466C24.9529 20.2502 24.8591 20.2502 24.7503 20.2502C24.5991 20.2459 24.4484 20.2718 24.3073 20.3264C24.1661 20.3809 24.0372 20.4631 23.9282 20.568C23.2972 21.1933 23.3113 22.5602 23.3188 23.4658V23.7574L23.256 23.6983C22.5539 22.9094 21.622 22.3605 20.5916 22.1289C20.4138 22.0994 20.2337 22.0859 20.0535 22.0886C19.6947 22.0892 19.3372 22.1323 18.9885 22.2171C18.6854 22.2929 18.3914 22.4016 18.112 22.5414C17.9957 22.5864 17.8963 22.6352 17.7801 22.6868C17.6442 22.7445 17.5004 22.7814 17.3535 22.7964C17.3288 22.7984 17.3041 22.7921 17.2832 22.7786C17.2775 22.7581 17.2775 22.7364 17.2832 22.7158C17.3854 22.3464 17.8026 22.0793 18.1269 21.8721L18.2113 21.8158C19.0448 21.2646 19.8285 20.7124 20.6001 20.1283C22.1901 19.0626 23.4787 17.6051 24.3416 15.8965C24.7896 14.8211 24.9756 13.6547 24.8844 12.4934V12.4249C24.8829 11.9262 24.7917 11.4318 24.6154 10.9653C24.4456 10.6391 24.1689 10.3812 23.8316 10.2349C23.7697 10.1974 23.7135 10.1637 23.6563 10.1318C23.8082 9.85807 24.2188 9.14183 24.6969 9.14183C24.8047 9.15198 24.9086 9.18731 25.0003 9.24495C25.092 9.3026 25.1689 9.38094 25.2247 9.47371C25.7203 10.221 26.0746 11.0529 26.27 11.9281C26.3103 12.0612 26.3525 12.2093 26.3919 12.3715C26.8419 13.9127 27.5853 16.4852 27.3463 18.3115V18.3012ZM37.0025 15.3921C36.3635 15.7822 35.6347 16.0008 34.8865 16.0268H34.8275C34.4028 16.0137 33.9706 15.9574 33.5515 15.9021C33.1934 15.8571 32.8259 15.8084 32.4631 15.7924C31.7125 15.721 30.9574 15.872 30.2919 16.2265C29.9336 16.4581 29.6204 16.7529 29.3675 17.0965C29.1799 17.3351 28.9696 17.5549 28.7394 17.7527C28.6717 17.8192 28.5848 17.8625 28.4909 17.8765H28.4863C28.3794 17.8708 28.37 17.8062 28.3794 17.6599V17.5662C28.3635 17.2324 28.3147 16.9033 28.2678 16.5837L28.2397 16.4046C28.1674 15.8236 28.0657 15.2466 27.935 14.6759C27.9112 14.5566 27.8764 14.4399 27.831 14.3271C27.6706 13.8171 27.4644 13.1824 27.8694 12.859C28.1555 12.6848 28.4851 12.5954 28.82 12.6012C28.82 12.6012 29.1266 12.5702 29.4763 12.5665H29.6019C29.9881 12.5675 30.3738 12.5926 30.7569 12.6415C31.5665 12.7579 32.3636 12.9487 33.1381 13.2115C33.6284 13.3699 34.114 13.5509 34.595 13.7243C35.7042 14.1648 36.8507 14.5053 38.0206 14.7415C37.6929 14.9788 37.3524 15.1979 37.0006 15.3977" fill="#707070"/>
<path d="M49.0434 24.303C48.7188 22.227 48.2058 20.1848 47.5106 18.2018C46.8382 16.2988 45.9909 14.4622 44.9794 12.7156C44.1937 11.3643 43.3025 10.0772 42.3141 8.86624C41.0522 7.31244 39.6155 5.90915 38.0325 4.68408C36.4938 3.4868 34.8098 2.4889 33.0207 1.7141C31.2351 0.950942 29.3542 0.433427 27.4295 0.175679C25.4704 -0.0819868 23.4844 -0.0560954 21.5326 0.252554C19.6151 0.55289 17.7481 1.11632 15.9846 1.92691C14.2138 2.74962 12.5505 3.78607 11.0318 5.01314C9.48258 6.27062 8.07971 7.69834 6.8496 9.26937C5.63976 10.8106 4.58114 12.4648 3.68838 14.209C2.76353 16.0258 2.01027 17.925 1.43839 19.8818C0.838841 21.9234 0.424973 24.015 0.201833 26.1311C-0.0289524 28.3315 -0.0618963 30.5482 0.103396 32.7545C0.263825 34.8929 0.613951 37.0128 1.14964 39.0892C1.67281 41.0748 2.37311 43.0094 3.24213 44.8698C4.08243 46.6551 5.09204 48.3557 6.25711 49.9482C7.69924 51.6951 9.25578 53.3444 10.9165 54.885C14.7904 58.1475 19.681 59.9564 24.7454 60H24.7539C26.7136 60.0014 28.6636 59.7233 30.5448 59.1741C32.4046 58.6277 34.1848 57.8397 35.8397 56.8303C37.5244 55.799 39.0808 54.5717 40.4766 53.1741C41.8676 51.7748 43.1101 50.2353 44.1844 48.5804C45.2732 46.9093 46.1981 45.1371 46.9462 43.2882C47.727 41.3623 48.3301 39.369 48.7481 37.3333C49.1908 35.204 49.4391 33.0388 49.4897 30.8646C49.5404 28.6682 49.392 26.4717 49.0462 24.3021L49.0434 24.303ZM5.23337 38.6411H4.60056L5.16305 36.497C5.21743 36.3367 5.24555 36.3451 5.26337 36.4117C5.25399 37.1833 5.24086 37.9333 5.22961 38.642L5.23337 38.6411ZM5.53711 32.7977L4.26775 32.2127C4.1965 32.1836 4.20493 32.1574 4.28275 32.1574H7.00148C7.08117 32.1574 7.08398 32.1827 7.01273 32.2127L5.79399 32.7977C5.75313 32.8147 5.70933 32.8234 5.66508 32.8234C5.62084 32.8234 5.57703 32.8147 5.53618 32.7977H5.53711ZM3.94806 31.6033L5.36649 30.5945C5.35993 30.9236 5.35149 31.2602 5.34493 31.6033H3.94806ZM4.41681 28.2011H6.84304C6.90773 28.2011 6.91429 28.2264 6.85617 28.2536L5.77149 28.7627C5.69585 28.7934 5.61173 28.7961 5.5343 28.7702L4.40931 28.2518C4.34462 28.2218 4.35118 28.2011 4.41681 28.2011V28.2011ZM4.11493 27.7043L5.42274 26.8455C5.41618 27.1099 5.41336 27.408 5.40305 27.7043H4.11493ZM5.88305 26.8605L7.16742 27.7043H5.89242C5.89242 27.4164 5.88305 27.1371 5.88305 26.8605ZM5.9393 30.5983L7.36523 31.6033H5.95899C5.94961 31.2639 5.94305 30.9227 5.94305 30.5983H5.9393ZM6.07242 38.642C6.06492 37.9333 6.04524 37.1833 6.03305 36.4183C6.0443 36.3611 6.08086 36.3245 6.1268 36.4745L6.70148 38.642H6.07242ZM24.7417 57.8287C21.0185 57.8157 17.3802 56.7146 14.2746 54.661C16.7032 54.6979 19.1256 54.9201 21.5205 55.3257C23.927 55.6856 26.3392 56.0888 28.7626 56.3316C29.6935 56.4253 30.6376 56.4947 31.5676 56.535C29.3937 57.391 27.078 57.8296 24.7417 57.8278V57.8287ZM35.8041 54.2653C33.4103 54.4807 31.0002 54.4383 28.6154 54.1388C26.2295 53.8866 23.8576 53.4769 21.4905 53.1347C19.0499 52.7375 16.583 52.5235 14.1105 52.4944C13.2668 52.5066 12.4314 52.5432 11.5999 52.6285C10.8042 51.921 10.0527 51.1652 9.3499 50.3654C11.836 50.0331 14.3509 49.9737 16.8499 50.1882C19.3577 50.371 21.8448 50.7376 24.3301 51.1004C25.5817 51.2879 26.8248 51.4754 28.0707 51.6394C28.7007 51.72 31.1701 51.915 31.7766 51.9104C34.2787 51.9135 36.7769 51.7166 39.2475 51.3216C38.1963 52.4118 37.0422 53.398 35.8013 54.2663L35.8041 54.2653ZM41.4835 48.6666C39.0845 49.228 36.6388 49.5666 34.1776 49.6782C32.9484 49.7554 31.716 49.7667 30.4857 49.7119C29.2435 49.6293 28.0063 49.4835 26.7789 49.2751C24.3001 48.9197 21.8251 48.5251 19.3398 48.2438C16.86 47.9442 14.3602 47.8436 11.8643 47.9429C10.5052 48.007 9.15242 48.1677 7.81616 48.4238C7.35492 47.7882 6.92367 47.1254 6.51586 46.4335C8.7158 45.9707 10.9509 45.6947 13.1974 45.6085C15.4694 45.5462 17.7427 45.6679 19.9952 45.9723C22.1758 46.2592 24.3357 46.6642 26.5135 46.9585C28.5042 47.2368 30.511 47.3843 32.521 47.4001H32.536C34.6247 47.3974 36.7098 47.2243 38.7704 46.8826C40.2785 46.6363 41.7697 46.3238 43.2441 45.9451C42.7077 46.8835 42.1193 47.7912 41.4816 48.6638L41.4835 48.6666ZM8.25397 41.0101C7.90915 40.7963 7.62514 40.4974 7.42927 40.1421C7.23339 39.7868 7.13224 39.3871 7.13554 38.9814L10.3596 31.3792C10.4299 31.2424 10.4608 31.2855 10.4449 31.3792L8.25397 41.0101ZM10.3971 33.8336C10.3483 37.2442 10.3033 40.4129 10.2827 41.9326C9.69011 41.7929 9.12552 41.5535 8.61303 41.2248L10.3221 33.6855C10.3661 33.6133 10.3877 33.722 10.3961 33.8336H10.3971ZM9.54303 27.1661H11.9777C12.0396 27.1661 12.0489 27.1943 11.9833 27.2233L10.8958 27.7399C10.8609 27.7558 10.8231 27.7645 10.7848 27.7653C10.7464 27.7661 10.7083 27.7591 10.6727 27.7446L9.53928 27.2233C9.47553 27.1952 9.47553 27.1661 9.55428 27.1661H9.54303ZM9.25147 26.6777L10.5302 25.8339C10.519 26.1058 10.519 26.389 10.5171 26.6777H9.25147ZM11.0327 25.848L12.2955 26.6777H11.0402C11.0402 26.3918 11.029 26.1152 11.029 25.848H11.0327ZM13.6221 37.0042C13.5761 38.6383 13.5368 40.2639 13.5086 41.5286C13.498 41.5404 13.4832 41.5478 13.4674 41.5492L12.3921 36.8495L12.963 35.4789L13.6221 37.0042ZM13.188 34.9595L13.6164 33.9405C13.6614 33.8748 13.6877 33.9001 13.6961 33.948C13.6849 34.6042 13.6661 35.3111 13.6464 36.0311L13.188 34.9595ZM12.1146 37.4964L13.158 41.7695C12.7653 41.9162 12.3559 42.0135 11.9393 42.0592C11.7986 42.0751 11.658 42.0873 11.5165 42.0985C11.4297 42.1092 11.3421 42.1117 11.2549 42.106C11.2549 41.5342 11.2361 40.6661 11.2286 39.5964L12.1146 37.4964ZM11.2118 38.5904C11.1968 37.1767 11.1743 35.5201 11.1424 33.8092C11.1583 33.6695 11.1911 33.5683 11.2558 33.7717L11.9599 36.8129L11.2118 38.5904ZM12.2327 36.1792L11.1274 31.382C11.1152 31.2883 11.1386 31.2405 11.2108 31.3774L12.7502 34.9605L12.2327 36.1792ZM14.3505 37.6792V36.978C14.3139 35.7311 14.2849 35.1527 14.2633 33.9958C14.2708 33.9142 14.2914 33.8598 14.3571 33.9527L16.278 38.7573C16.0828 39.2617 15.7915 39.7234 15.4202 40.1167L14.3505 37.6792ZM15.1071 40.4289C14.902 40.6495 14.6784 40.8522 14.4386 41.0345C14.4199 40.3782 14.3927 39.5345 14.3786 38.7686L15.1071 40.4289ZM17.0645 38.5886L19.2667 33.8598C19.2302 35.2183 19.1823 37.1626 19.1411 38.5886H18.2392C17.913 38.5886 17.388 38.6111 17.0636 38.5886H17.0645ZM32.8248 32.5324H36.0066C36.0891 32.5324 36.1004 32.5567 36.0488 32.5905C36.0376 32.598 34.5957 33.2767 34.5957 33.2767C34.5493 33.2983 34.4991 33.3102 34.448 33.3116C34.3969 33.3131 34.346 33.3041 34.2985 33.2852L32.8098 32.598C32.7235 32.5595 32.731 32.5324 32.8248 32.5324V32.5324ZM32.4601 31.8986L34.1223 30.707C34.1223 31.0595 34.1082 31.8555 34.1082 31.8986H32.4601ZM33.0638 27.2111C33.0812 27.2055 33.0991 27.2018 33.1173 27.1999H35.7741C35.8041 27.1999 35.8144 27.1999 35.8219 27.2111C35.8407 27.2186 35.8332 27.2374 35.7854 27.2571L34.5948 27.8196C34.5139 27.8453 34.4271 27.8453 34.3463 27.8196L33.106 27.2571C33.0629 27.2383 33.0507 27.2186 33.0629 27.2111H33.0638ZM32.7769 26.6411L34.1973 25.624C34.1888 25.9521 34.1888 26.2886 34.1841 26.6411H32.7769ZM34.6885 25.639L36.1182 26.6411H34.7119C34.7035 26.3008 34.6969 25.9661 34.6866 25.639H34.6885ZM34.7607 30.7099L36.421 31.9014H34.7944C34.7832 31.5095 34.7729 31.0989 34.7682 30.7099H34.7607ZM39.5841 29.4321H42.3028C42.3788 29.4321 42.3891 29.4508 42.3141 29.4883L41.0953 30.0752C41.0137 30.1056 40.9238 30.1056 40.8422 30.0752L39.5738 29.4883C39.5025 29.4508 39.5053 29.4321 39.5832 29.4321H39.5841ZM39.2419 28.878L40.6697 27.8646C40.6622 28.2039 40.6603 28.5339 40.6538 28.878H39.2419ZM41.2228 27.8664L42.6703 28.878H41.2435C41.2435 28.5396 41.235 28.203 41.2238 27.8664H41.2228ZM40.6069 33.7174C40.5563 37.0126 40.5 40.5526 40.4653 43.0407C39.7929 43.2857 39.0766 43.3875 38.3625 43.3398L39.7135 37.2958L40.5085 33.7333C40.5497 33.6489 40.5881 33.6039 40.6022 33.7145L40.6069 33.7174ZM40.4147 32.3027L38.0522 42.7735L37.0257 39.9611L37.0332 39.9442L40.2638 32.1949C40.3519 32.042 40.4513 31.937 40.4138 32.3064L40.4147 32.3027ZM37.8029 43.2488C37.144 43.0989 36.5336 42.7852 36.0282 42.3367L36.7979 40.4982L37.8029 43.2488ZM35.731 42.0432C35.4037 41.6953 35.1269 41.303 34.9088 40.8779C34.8929 39.2908 34.8535 36.9236 34.8151 34.3895L36.6104 39.9207L35.731 42.0432ZM31.8404 40.7682H27.9404L33.7473 34.217L31.8404 40.7682ZM34.0669 34.3858C34.0416 35.8605 33.9901 40.5892 33.9901 40.7682H32.2576L34.0669 34.3858ZM41.3016 33.7145C41.2941 33.6067 41.3522 33.6405 41.3888 33.7361L43.0144 40.7673C42.6613 41.4992 42.1089 42.1166 41.4206 42.5485C41.4047 41.2745 41.3072 33.7361 41.3025 33.7108L41.3016 33.7145ZM43.4297 40.7195L41.4441 32.3833C41.3831 31.8733 41.5106 32.0552 41.6138 32.2445L45.2587 40.7204L43.4297 40.7195ZM46.6791 36.6536C46.4095 37.9826 46.0598 39.294 45.6319 40.5807L41.2772 30.2439L43.1925 29.3908C43.237 29.3678 43.2742 29.3331 43.3003 29.2903C43.3263 29.2476 43.34 29.1985 43.34 29.1485C43.34 29.0984 43.3263 29.0493 43.3003 29.0066C43.2742 28.9639 43.237 28.9291 43.1925 28.9061C43.1925 28.9061 41.3175 27.5711 41.2097 27.4999L41.1638 24.3293C41.3963 24.2965 41.6213 24.1943 41.8463 24.1568C42.0946 24.1332 42.3451 24.1507 42.5878 24.2083C42.8047 24.2639 43.0321 24.2639 43.2489 24.2082C43.4657 24.1524 43.665 24.0429 43.8281 23.8896C43.3521 23.8103 42.8978 23.6327 42.4941 23.3683C42.2725 23.266 42.035 23.2025 41.7919 23.1808C41.5426 23.1407 41.2878 23.1496 41.0419 23.2071C41.0175 23.0196 40.9931 22.8321 40.9622 22.6249H40.861C40.7417 23.5179 40.6906 24.4186 40.7082 25.3193C40.7082 25.9333 40.6997 26.5549 40.6922 27.1727C40.6922 27.2805 40.6922 27.3892 40.6819 27.5027L38.7132 28.9089C38.6694 28.932 38.6328 28.9666 38.6072 29.009C38.5816 29.0514 38.5681 29.0999 38.5681 29.1494C38.5681 29.1989 38.5816 29.2474 38.6072 29.2898C38.6328 29.3322 38.6694 29.3668 38.7132 29.3899V29.3955L40.5694 30.2486L36.8194 39.3714L34.8854 33.5008L37.0229 32.4977C37.0741 32.4713 37.1173 32.4315 37.1479 32.3826C37.1784 32.3337 37.1951 32.2774 37.1963 32.2198C37.1974 32.1621 37.183 32.1052 37.1544 32.0551C37.1259 32.005 37.0843 31.9636 37.0341 31.9352C37.0341 31.9352 35.0147 30.5233 34.7541 30.333C34.7447 29.5914 34.7279 28.7899 34.7232 28.0905L36.6769 27.1699C36.7216 27.1473 36.7592 27.1131 36.7859 27.0708C36.8125 27.0285 36.8272 26.9797 36.8282 26.9297C36.8293 26.8797 36.8167 26.8304 36.7919 26.787C36.7671 26.7436 36.7309 26.7077 36.6872 26.6833L34.6744 25.2583C34.6594 23.8155 34.6519 22.3784 34.6266 20.9459C34.7396 20.9332 34.851 20.9096 34.9594 20.8755C35.0803 20.8347 35.2033 20.8006 35.3279 20.7734C35.5755 20.7441 35.8263 20.7574 36.0694 20.8127C36.2916 20.8726 36.5253 20.8754 36.7489 20.8208C36.9724 20.7663 37.1786 20.6561 37.3482 20.5005C36.8723 20.4197 36.4181 20.2416 36.0141 19.9774C35.7915 19.8781 35.5545 19.8148 35.3119 19.7899C35.0625 19.752 34.8081 19.7609 34.5619 19.8162C34.5432 19.6334 34.5141 19.4412 34.4776 19.2302H34.3838V19.2359C34.2665 20.0309 34.2154 20.8343 34.231 21.6377C34.2244 22.3708 34.2244 23.0983 34.2085 23.8315C34.201 24.3077 34.1926 24.7849 34.186 25.2593L32.1985 26.6777C32.1543 26.702 32.1175 26.7376 32.0918 26.781C32.0661 26.8244 32.0526 26.8739 32.0526 26.9243C32.0526 26.9747 32.0661 27.0241 32.0918 27.0675C32.1175 27.1109 32.1543 27.1466 32.1985 27.1708L34.1466 28.0886C34.1466 28.7833 34.1326 29.6036 34.1213 30.3386L31.8488 31.9324C31.7962 31.9581 31.7518 31.9981 31.7208 32.0479C31.6898 32.0976 31.6733 32.155 31.6733 32.2136C31.6733 32.2722 31.6898 32.3296 31.7208 32.3794C31.7518 32.4291 31.7962 32.4691 31.8488 32.4949L33.9404 33.4989L27.392 40.771C27.2664 40.771 26.4545 40.7776 26.3364 40.9295C26.2625 40.9909 26.2121 41.0759 26.1936 41.1702C26.1752 41.2645 26.1898 41.3623 26.2351 41.447C26.3389 41.6768 26.5201 41.8629 26.747 41.9729C26.8577 42.0417 26.9752 42.0988 27.0976 42.1435C27.1134 42.1502 27.1263 42.1621 27.1342 42.1773C27.4086 42.857 27.8306 43.4673 28.3697 43.9641C28.9088 44.4608 29.5515 44.8317 30.2513 45.0498H30.2588C30.2588 45.0498 30.3273 45.0732 30.3123 45.1229L30.3029 45.1454C30.2801 45.1543 30.2566 45.1612 30.2326 45.166C27.8176 45.0188 25.4401 44.6232 23.0645 44.2501C22.1514 44.1029 21.243 43.9689 20.3336 43.846C19.713 43.7682 19.1027 43.6932 18.4877 43.5845C18.4295 43.5592 18.4005 43.5432 18.3864 43.5188V43.5132L18.3817 43.5048V43.4907C18.3817 43.4842 18.3864 43.4842 18.3864 43.4842C18.393 43.4662 18.4044 43.4503 18.4192 43.4382L18.4408 43.4232C19.344 43.2205 20.1846 42.8017 20.8905 42.2027C21.5963 41.6038 22.1464 40.8427 22.4936 39.9845C22.5367 39.962 22.577 39.9367 22.6173 39.9161C22.708 39.8769 22.7965 39.8331 22.8826 39.7848C23.1054 39.6691 23.2856 39.4856 23.3973 39.2607C23.4406 39.1748 23.454 39.0768 23.4353 38.9824C23.4166 38.888 23.367 38.8025 23.2942 38.7395C23.1714 38.5736 22.2208 38.5811 22.2208 38.5811L22.2133 38.5867H22.053C22.0464 38.0664 22.038 36.7117 22.0023 35.8323C22.1057 35.8586 22.2146 35.8527 22.3145 35.8155C22.4439 35.777 22.5648 35.7367 22.6895 35.7123C22.9425 35.6548 23.2052 35.6548 23.4583 35.7123C23.7046 35.7682 23.9596 35.7742 24.2082 35.7301C24.4294 35.6712 24.6338 35.5618 24.8054 35.4105C24.3205 35.319 23.8577 35.135 23.4423 34.8686C23.2091 34.7675 22.9607 34.7057 22.7073 34.6858C22.4513 34.6435 22.1888 34.6667 21.9442 34.7533C21.9254 34.5386 21.9095 34.3623 21.888 34.2264H21.7942C21.6648 34.9764 21.6648 37.5798 21.6564 38.5867H19.9736C19.923 36.753 19.8395 34.3042 19.7992 32.7358L21.2589 29.6102C21.4605 29.6955 21.6864 29.7114 21.8908 29.7892C22.1126 29.8722 22.3168 29.9962 22.4926 30.1549C22.6583 30.3105 22.8521 30.4333 23.0636 30.5167C23.3011 30.578 23.5494 30.5853 23.7901 30.5383C23.4239 30.244 23.1261 29.8736 22.9173 29.4527C22.7752 29.2582 22.6041 29.0865 22.4101 28.9436C22.2064 28.7799 21.9731 28.6567 21.723 28.5808C21.7846 28.4141 21.8311 28.2422 21.8617 28.0671C21.8542 28.0502 21.8617 28.0202 21.8186 27.9958C21.8088 27.9945 21.7991 27.9926 21.7895 27.9902C21.723 28.0014 21.708 28.0371 21.6667 28.0914C21.543 28.2577 21.4303 28.4318 21.3292 28.6127L19.7805 31.9492C19.7617 31.4252 19.7514 30.8992 19.742 30.3742C19.7507 29.7137 19.704 29.0536 19.6023 28.4008H19.5086C19.3955 29.1959 19.3459 29.9988 19.3605 30.8017C19.352 31.5189 19.3258 32.2492 19.3042 32.9711L16.6286 38.5136L14.2324 32.6355C14.2117 31.9061 14.1949 31.1833 14.1855 30.4483C14.1983 29.6227 14.1463 28.7973 14.0299 27.9799H13.9361C13.824 28.7849 13.7713 29.5971 13.7786 30.4099C13.7786 31.1514 13.7561 31.8939 13.7392 32.627L12.9686 34.4439L11.0936 30.0752C11.0815 29.3477 11.0721 28.6314 11.0627 27.9396L12.7718 27.1352C12.811 27.1153 12.8439 27.0849 12.8669 27.0474C12.8899 27.0099 12.9021 26.9668 12.9021 26.9228C12.9021 26.8789 12.8899 26.8357 12.8669 26.7983C12.8439 26.7608 12.811 26.7304 12.7718 26.7105C12.7718 26.7105 11.3327 25.669 11.0271 25.4524C11.0083 23.9524 10.9961 22.4468 10.9708 20.944C11.08 20.9326 11.1875 20.909 11.2915 20.8737C11.4144 20.8325 11.5396 20.7984 11.6665 20.7715C11.9138 20.742 12.1643 20.7553 12.4071 20.8109C12.6416 20.864 12.885 20.864 13.1196 20.8109C13.3255 20.7442 13.5165 20.6382 13.6821 20.4987C13.2146 20.4223 12.7689 20.2464 12.3752 19.983C12.1555 19.88 11.92 19.8144 11.6786 19.789C11.4201 19.7443 11.1551 19.7519 10.8996 19.8115C10.8827 19.6156 10.8565 19.4149 10.8293 19.2199H10.7355C10.6007 20.1806 10.5458 21.1508 10.5715 22.1205C10.563 23.058 10.549 23.9955 10.5377 24.933C10.533 25.1083 10.533 25.2818 10.5265 25.4533L8.78178 26.7049C8.74198 26.7251 8.70855 26.756 8.6852 26.794C8.66185 26.8321 8.6495 26.8759 8.6495 26.9205C8.6495 26.9652 8.66185 27.0089 8.6852 27.047C8.70855 27.0851 8.74198 27.1159 8.78178 27.1361L10.4908 27.9405C10.4758 28.7205 10.4599 29.9899 10.4599 30.0761L6.9846 38.2454L6.47461 36.3704H7.14679C7.24695 36.3642 7.34512 36.3398 7.43648 36.2983C7.50304 36.2814 7.6596 36.2251 7.6596 36.1314C7.6596 36.0376 7.51991 35.9983 7.46085 35.9739C7.36056 35.9344 7.25447 35.9116 7.14679 35.9064H6.35273L6.00774 34.6089C6.00117 34.0839 5.99274 33.5402 5.98149 33.0199L7.90147 32.1199C7.94565 32.0973 7.98289 32.0633 8.0092 32.0212C8.03552 31.9792 8.04992 31.9308 8.05089 31.8813C8.05185 31.8317 8.03933 31.7828 8.01467 31.7398C7.99 31.6968 7.95412 31.6613 7.91085 31.637C7.91085 31.637 6.06774 30.3321 5.93461 30.2458C5.93461 29.8633 5.92711 29.3374 5.91492 28.9811L7.64554 28.1655C7.68521 28.1456 7.7187 28.1152 7.74237 28.0777C7.76605 28.0401 7.77902 27.9968 7.77989 27.9524C7.78076 27.908 7.76949 27.8643 7.7473 27.8258C7.72511 27.7874 7.69284 27.7557 7.65398 27.7343C7.65398 27.7343 6.11648 26.6336 5.87274 26.464C5.85774 25.2058 5.84836 24.3668 5.8418 24.273C6.04945 24.2562 6.25383 24.211 6.4493 24.139C6.66496 24.1038 6.8853 24.1092 7.09898 24.1549C7.30425 24.2057 7.51788 24.2131 7.72616 24.1765C7.92224 24.118 8.10415 24.0197 8.26053 23.8877C7.83873 23.8154 7.4367 23.6558 7.08023 23.419C6.87991 23.3321 6.66684 23.2783 6.4493 23.2596C6.2271 23.2212 5.99904 23.2343 5.78274 23.298C5.76305 23.1283 5.7368 22.9587 5.6993 22.7749H5.60555C5.49645 23.4627 5.44876 24.1589 5.46305 24.8552C5.45368 25.4561 5.44524 25.8668 5.43118 26.4658L3.66025 27.7258C3.62037 27.7467 3.58698 27.7781 3.56367 27.8166C3.54037 27.8551 3.52805 27.8992 3.52805 27.9443C3.52805 27.9893 3.54037 28.0334 3.56367 28.0719C3.58698 28.1104 3.62037 28.1418 3.66025 28.1627L5.39086 28.9783C5.38524 29.3364 5.38243 29.8624 5.37305 30.243L3.42682 31.6277C3.38205 31.6503 3.34444 31.6848 3.31815 31.7275C3.29187 31.7702 3.27796 31.8194 3.27796 31.8695C3.27796 31.9197 3.29187 31.9688 3.31815 32.0115C3.34444 32.0543 3.38205 32.0888 3.42682 32.1114L5.32618 33.017C5.32149 33.5364 5.30555 34.0727 5.29712 34.5911L4.95774 35.9036H4.16369C4.06195 35.9071 3.96139 35.9264 3.86556 35.9608C3.80275 35.987 3.64431 36.0423 3.64431 36.1286C3.64431 36.2148 3.78587 36.2655 3.84587 36.2889C3.94622 36.335 4.05436 36.3617 4.16462 36.3676H4.83212L4.23681 38.6392H3.27588C2.69078 36.449 2.33543 34.2037 2.21557 31.9399C2.08367 29.6746 2.17789 27.4018 2.49682 25.1552C2.79139 23.0708 3.28874 21.0202 3.98181 19.0324C4.63433 17.1418 5.47741 15.3225 6.49804 13.6025C7.03342 12.6938 7.62161 11.8173 8.2596 10.9775C10.2164 11.4735 12.2628 11.4992 14.2314 11.0525C16.2083 10.6269 18.2415 10.5287 20.2501 10.7619L20.8389 10.8659C20.8859 10.5314 20.9602 10.2012 21.0611 9.87874C18.8688 9.2742 16.5806 9.09755 14.3214 9.35843C12.9036 9.57485 11.4534 9.35923 10.1599 8.73968C10.9267 7.92565 11.7564 7.17333 12.6414 6.4897C13.6568 7.15323 14.8065 7.58354 16.008 7.74969C16.773 7.88281 17.5502 7.93719 18.3058 8.11531C19.0777 8.29341 19.8392 8.51406 20.5867 8.77625C20.8483 8.87 21.198 9.03874 21.3583 9.11468C21.5038 8.80659 21.6813 8.51467 21.888 8.24374L21.3976 7.93344C20.4675 7.42753 19.4793 7.03653 18.4548 6.76907C17.7663 6.56978 17.0974 6.3084 16.4561 5.98814C15.9124 5.70298 15.4149 5.33729 14.9805 4.90346C15.915 4.33823 16.8949 3.85185 17.9102 3.4494C18.5664 4.38127 19.7908 4.90346 20.6205 5.61877C21.3335 6.20867 21.9588 6.89715 22.4776 7.66344C22.7489 7.45655 23.0494 7.291 23.3692 7.1722C22.9088 6.07301 22.2493 5.06834 21.4239 4.20877C20.9434 3.80014 20.5755 3.27539 20.3551 2.68441C21.4508 2.41338 22.5694 2.24577 23.6964 2.18379L24.2401 6.965C24.4071 6.9406 24.5758 6.92964 24.7445 6.9322C24.915 6.93211 25.0854 6.94306 25.2545 6.965L25.8001 2.18941C26.581 2.23024 27.3587 2.31852 28.1288 2.45378C28.7101 2.57472 29.1479 2.68441 29.1479 2.68441C28.9222 3.26995 28.5592 3.79272 28.0895 4.20877C27.2637 5.0681 26.6084 6.07622 26.1582 7.17969C26.4754 7.29732 26.7731 7.46197 27.0414 7.66812C27.5638 6.905 28.1865 6.2157 28.8929 5.61877C29.7076 4.90909 30.9254 4.35689 31.5826 3.4494C32.292 3.72576 32.9853 4.0419 33.6591 4.39628L34.5329 4.90064C34.0605 5.28939 33.5672 5.65211 33.0554 5.9872C32.4197 6.32333 31.7475 6.58536 31.052 6.76814C30.0282 7.03678 29.0404 7.4277 28.1101 7.93249L27.616 8.23812C27.8301 8.50603 28.0117 8.79838 28.157 9.10905C28.336 9.02374 28.6717 8.8653 28.9238 8.7753C29.6716 8.51186 30.4338 8.29119 31.2066 8.11437C31.9566 7.94093 32.7357 7.88187 33.5026 7.74875C34.6994 7.57589 35.8447 7.14606 36.8597 6.48876C37.7338 7.18505 38.5623 7.93657 39.3403 8.73874C38.0474 9.35035 36.6019 9.56408 35.1873 9.3528C32.9279 9.08923 30.639 9.26206 28.4448 9.86187C28.5475 10.176 28.6173 10.4999 28.6529 10.8284L29.2829 10.729C31.2838 10.5152 33.306 10.6235 35.2726 11.0497C37.2346 11.4963 39.2744 11.4729 41.2256 10.9812C41.4919 11.3187 41.7385 11.6609 41.9756 12.0125C43.0893 13.6331 44.0318 15.3649 44.7881 17.1799C45.5947 19.0888 46.2114 21.0724 46.6294 23.1021C47.071 25.2378 47.3033 27.4115 47.3231 29.5924C47.3518 31.9601 47.136 34.3245 46.6791 36.6479" fill="#707070"/>
<path d="M73.1567 13.6596C73.194 12.9747 73.0329 12.2936 72.6927 11.6981C72.3524 11.1026 71.8475 10.618 71.2385 10.3024C71.6756 9.9908 72.0294 9.57654 72.2687 9.09607C72.508 8.61561 72.6256 8.08368 72.611 7.54711C72.611 5.20337 71.1963 3.74463 68.3867 3.74463H61.918V17.7855H68.7495C71.4588 17.7855 73.1567 16.1721 73.1567 13.6596ZM68.3857 6.17649C68.5975 6.15464 68.8114 6.17862 69.0131 6.2468C69.2147 6.31498 69.3993 6.42576 69.5543 6.57162C69.7093 6.71748 69.8311 6.89499 69.9115 7.09211C69.9918 7.28922 70.0287 7.50132 70.0198 7.71398C70.0207 7.92555 69.9784 8.13508 69.8955 8.32971C69.8125 8.52433 69.6907 8.69995 69.5374 8.84578C69.3841 8.9916 69.2026 9.10456 69.0041 9.17771C68.8056 9.25086 68.5942 9.28266 68.3829 9.27116H64.5823V6.17743L68.3857 6.17649ZM70.4276 13.5583C70.4276 14.9336 69.417 15.3396 68.3857 15.3396H64.5823V11.718H68.3248C69.6795 11.718 70.4276 12.3855 70.4276 13.5583V13.5583ZM83.4053 7.37086H80.7363V13.4533C80.7465 13.7225 80.7014 13.9909 80.6037 14.242C80.5061 14.493 80.3579 14.7213 80.1684 14.9128C79.979 15.1043 79.7522 15.2549 79.5022 15.3552C79.2523 15.4555 78.9843 15.5035 78.7151 15.4961C78.4478 15.5095 78.1808 15.465 77.9324 15.3656C77.6839 15.2663 77.4599 15.1144 77.2756 14.9204C77.0913 14.7264 76.9511 14.4949 76.8646 14.2416C76.7781 13.9884 76.7474 13.7195 76.7744 13.4533V7.36992H74.1063V13.4533C74.1063 16.1833 75.7432 18.0245 78.2097 18.0245C78.7118 18.0328 79.2095 17.9301 79.6673 17.7238C80.1251 17.5175 80.5318 17.2127 80.8582 16.8311V17.7817H83.4053V7.37086ZM95.1896 13.6202C95.574 9.49522 93.0268 7.10742 89.9547 7.10742C88.5279 7.1398 87.1705 7.72932 86.1729 8.74982C85.1753 9.77032 84.6168 11.1407 84.6168 12.5679C84.6168 13.995 85.1753 15.3654 86.1729 16.3859C87.1705 17.4064 88.5279 17.9959 89.9547 18.0283C91.0735 18.0945 92.1816 17.7777 93.0965 17.1302C94.0113 16.4827 94.6785 15.543 94.9881 14.4658H92.1381C91.9175 14.8507 91.5953 15.1674 91.2067 15.3814C90.8181 15.5953 90.3782 15.6983 89.935 15.6789C89.3303 15.6843 88.7419 15.4827 88.2677 15.1075C87.7934 14.7323 87.4617 14.2062 87.3278 13.6164L95.1896 13.6202ZM87.3634 11.4349C87.5136 10.8682 87.8465 10.3668 88.3106 10.0085C88.7747 9.65016 89.344 9.45493 89.9303 9.45303C90.5258 9.43605 91.1093 9.6234 91.5836 9.98395C92.0579 10.3445 92.3945 10.8565 92.5375 11.4349H87.3634ZM105.738 11.6974C105.738 8.94678 104.121 7.10367 101.675 7.10367C101.16 7.10151 100.651 7.21513 100.186 7.43615C99.7213 7.65717 99.3119 7.97993 98.9884 8.38054V7.36992H96.4431V17.7855H99.1112V11.6974C99.0993 11.4269 99.1431 11.1568 99.2399 10.9039C99.3368 10.651 99.4845 10.4208 99.6741 10.2274C99.8636 10.034 100.091 9.88158 100.342 9.77967C100.593 9.67775 100.862 9.62848 101.132 9.63491C101.402 9.62013 101.671 9.66438 101.922 9.76456C102.172 9.86474 102.397 10.0184 102.582 10.2149C102.767 10.4113 102.907 10.6458 102.992 10.9019C103.076 11.158 103.104 11.4295 103.073 11.6974V17.7845H105.738V11.6974ZM112.125 7.10367C111.42 7.11302 110.723 7.26298 110.076 7.54479C109.429 7.8266 108.845 8.23459 108.357 8.74491C107.87 9.25523 107.489 9.85762 107.237 10.5169C106.985 11.1761 106.868 11.8789 106.891 12.5843C106.862 13.2908 106.977 13.9959 107.228 14.657C107.479 15.3182 107.86 15.9219 108.35 16.4318C108.84 16.9418 109.428 17.3475 110.079 17.6246C110.729 17.9018 111.429 18.0447 112.136 18.0447C112.843 18.0447 113.543 17.9018 114.194 17.6246C114.844 17.3475 115.432 16.9418 115.922 16.4318C116.412 15.9219 116.794 15.3182 117.045 14.657C117.296 13.9959 117.41 13.2908 117.382 12.5843C117.402 11.8782 117.282 11.1752 117.028 10.5161C116.774 9.85696 116.392 9.25497 115.903 8.74516C115.414 8.23534 114.829 7.82791 114.181 7.54657C113.533 7.26524 112.835 7.11564 112.129 7.10648L112.125 7.10367ZM112.125 15.5777C111.76 15.5584 111.401 15.4654 111.072 15.3043C110.743 15.1432 110.45 14.9172 110.211 14.64C109.972 14.3628 109.791 14.04 109.679 13.6911C109.567 13.3422 109.527 12.9743 109.561 12.6096C109.561 10.8096 110.714 9.55522 112.128 9.55522C113.543 9.55522 114.695 10.8096 114.695 12.6096C114.73 12.9747 114.69 13.343 114.578 13.6924C114.467 14.0417 114.286 14.3649 114.046 14.6425C113.806 14.92 113.513 15.1462 113.184 15.3074C112.854 15.4686 112.495 15.5615 112.129 15.5805L112.125 15.5777ZM127.394 14.5089C127.394 12.244 125.534 11.6777 122.947 11.253C121.653 11.0505 120.884 10.8686 120.884 10.323C120.884 9.93865 121.39 9.49428 122.623 9.49428C123.614 9.49428 124.199 9.87865 124.361 10.3643H127.13C126.786 8.4021 125.008 7.10836 122.623 7.10836C119.61 7.10836 118.175 8.8071 118.175 10.4458C118.175 12.7718 120.661 13.2771 122.521 13.5602C124.341 13.8414 124.705 14.0861 124.705 14.673C124.705 15.2796 123.897 15.603 122.825 15.603C122.377 15.6341 121.929 15.5365 121.535 15.3218C121.14 15.107 120.816 14.784 120.599 14.3908H117.89C118.214 16.6361 120.174 18.0311 122.822 18.0311C125.49 18.0283 127.394 16.5724 127.394 14.5089Z" fill="#707070"/>
<path d="M70.1295 34.0855L71.0801 36.8979H73.9113L69.0176 22.8608H65.6426L60.7461 36.897H63.5773L64.5279 34.0845L70.1295 34.0855ZM69.2801 31.5983H65.3567L67.3189 25.8336L69.2801 31.5983ZM78.0579 22.8608H75.3879V25.3461H78.0579V22.8608ZM78.0579 26.4814H75.3879V36.897H78.0579V26.4814ZM89.8703 30.8099C89.8703 28.0592 88.2522 26.2161 85.8053 26.2161C85.2902 26.2134 84.781 26.3265 84.3155 26.547C83.8499 26.7675 83.4399 27.0899 83.1156 27.4902V26.4814H80.5657V36.897H83.2375V30.8089C83.2256 30.5383 83.2695 30.2682 83.3664 30.0152C83.4632 29.7623 83.6111 29.5319 83.8007 29.3385C83.9903 29.1451 84.2177 28.9928 84.4687 28.8909C84.7197 28.789 84.9889 28.7399 85.2597 28.7464C85.5291 28.7317 85.7984 28.7759 86.0489 28.8761C86.2994 28.9763 86.525 29.1299 86.7099 29.3264C86.8948 29.5228 87.0346 29.7573 87.1194 30.0133C87.2043 30.2694 87.2322 30.5409 87.2012 30.8089V31.3349H89.8712L89.8703 30.8099ZM101.641 32.7308C102.026 28.6058 99.4777 26.218 96.4037 26.218C94.9769 26.2504 93.6195 26.8399 92.6219 27.8604C91.6243 28.8809 91.0658 30.2513 91.0658 31.6784C91.0658 33.1056 91.6243 34.476 92.6219 35.4965C93.6195 36.517 94.9769 37.1065 96.4037 37.1389C97.523 37.2054 98.6315 36.8888 99.5469 36.2413C100.462 35.5938 101.13 34.6539 101.44 33.5764H98.5862C98.3653 33.9613 98.0429 34.278 97.6542 34.4919C97.2655 34.7059 96.8254 34.8088 96.3821 34.7895C95.7771 34.7952 95.1884 34.5936 94.7138 34.2185C94.2392 33.8433 93.9072 33.317 93.7731 32.727L101.641 32.7308ZM93.8143 30.5464C93.9647 29.9794 94.298 29.4779 94.7624 29.1196C95.2268 28.7613 95.7965 28.5662 96.3831 28.5646C96.9781 28.5486 97.5606 28.7364 98.0343 29.0968C98.5079 29.4572 98.8442 29.9687 98.9874 30.5464H93.8143ZM112.3 33.6205C112.3 31.3555 110.439 30.7892 107.85 30.3645C106.556 30.162 105.788 29.9802 105.788 29.4346C105.788 29.0502 106.293 28.6058 107.527 28.6058C108.518 28.6058 109.105 28.9902 109.266 29.4758H112.037C111.693 27.5136 109.914 26.2199 107.527 26.2199C104.514 26.2199 103.078 27.9186 103.078 29.5574C103.078 31.8833 105.565 32.3886 107.426 32.6717C109.246 32.953 109.61 33.1977 109.61 33.7845C109.61 34.3911 108.801 34.7145 107.73 34.7145C107.282 34.7455 106.834 34.6479 106.44 34.4331C106.045 34.2184 105.72 33.8955 105.503 33.5023H102.793C103.116 35.7476 105.078 37.1426 107.728 37.1426C110.397 37.1398 112.3 35.6839 112.3 33.6205Z" fill="#707070"/>
<path d="M74.4508 51.5579H71.5811C71.2699 52.2258 70.7768 52.7926 70.1584 53.1932C69.5399 53.5938 68.8211 53.812 68.0843 53.8229C65.7799 53.8229 63.9593 51.5982 63.9593 48.9282C63.9593 46.2789 65.779 44.0532 68.0843 44.0532C68.8183 44.0535 69.537 44.2628 70.1563 44.6568C70.7756 45.0508 71.2699 45.6132 71.5811 46.2779H74.4714C74.0903 44.8926 73.2515 43.677 72.0916 42.8289C70.9317 41.9809 69.519 41.5503 68.0833 41.6073C64.263 41.6073 61.2949 44.8229 61.2949 48.9292C61.2949 53.0354 64.2668 56.25 68.0871 56.25C69.5182 56.2856 70.9205 55.8438 72.0728 54.9942C73.225 54.1446 74.0617 52.9356 74.4508 51.5579V51.5579ZM78.2711 41.972H75.603V44.4592H78.2711V41.972ZM78.2711 45.5926H75.603V56.0119H78.2711V45.5926ZM89.2876 45.5926H86.6195V51.6798C86.6297 51.9489 86.5846 52.2174 86.4869 52.4684C86.3892 52.7194 86.2411 52.9478 86.0516 53.1393C85.8621 53.3307 85.6354 53.4813 85.3854 53.5816C85.1354 53.682 84.8675 53.7299 84.5982 53.7226C84.331 53.736 84.064 53.6914 83.8155 53.5921C83.5671 53.4927 83.3431 53.3408 83.1588 53.1468C82.9745 52.9528 82.8343 52.7213 82.7478 52.4681C82.6613 52.2149 82.6305 51.946 82.6576 51.6798V45.5917H79.9895V51.6788C79.9895 54.4088 81.6264 56.25 84.0929 56.25C84.595 56.2583 85.0927 56.1556 85.5505 55.9493C86.0083 55.743 86.4149 55.4382 86.7413 55.0566V56.0119H89.2885L89.2876 45.5926ZM101.194 40.9614H98.5256V46.5864C97.6995 45.796 96.5967 45.3605 95.4535 45.3732C94.7701 45.4017 94.0992 45.5653 93.4795 45.8547C92.8597 46.144 92.3035 46.5533 91.843 47.059C91.3824 47.5646 91.0266 48.1565 90.7963 48.8005C90.5659 49.4444 90.4654 50.1277 90.5007 50.8107C90.4668 51.4926 90.5684 52.1744 90.7995 52.8168C91.0306 53.4592 91.3867 54.0494 91.8472 54.5534C92.3077 55.0574 92.8635 55.4652 93.4824 55.7531C94.1014 56.0411 94.7713 56.2037 95.4535 56.2313C96.0488 56.2387 96.6394 56.124 97.1887 55.8944C97.738 55.6648 98.2345 55.3251 98.6475 54.8963V56.0119H101.195L101.194 40.9614ZM98.5256 50.8304C98.5612 51.2022 98.5187 51.5773 98.4008 51.9318C98.2829 52.2862 98.0922 52.612 97.841 52.8884C97.5898 53.1648 97.2836 53.3857 96.942 53.5368C96.6004 53.6879 96.231 53.766 95.8575 53.766C95.484 53.766 95.1146 53.6879 94.7731 53.5368C94.4315 53.3857 94.1253 53.1648 93.8741 52.8884C93.6228 52.612 93.4322 52.2862 93.3143 51.9318C93.1964 51.5773 93.1538 51.2022 93.1894 50.8304C93.1459 50.4541 93.1824 50.0729 93.2966 49.7117C93.4108 49.3506 93.6001 49.0177 93.8521 48.7349C94.1041 48.452 94.413 48.2257 94.7586 48.0707C95.1042 47.9158 95.4787 47.8357 95.8575 47.8357C96.2363 47.8357 96.6108 47.9158 96.9564 48.0707C97.3021 48.2257 97.611 48.452 97.863 48.7349C98.1149 49.0177 98.3042 49.3506 98.4185 49.7117C98.5327 50.0729 98.5692 50.4541 98.5256 50.8304V50.8304ZM113.16 45.5926H110.614V46.7045C110.202 46.274 109.706 45.9332 109.156 45.7035C108.606 45.4738 108.015 45.3601 107.42 45.3695C106.736 45.3979 106.065 45.5616 105.446 45.8509C104.826 46.1403 104.27 46.5496 103.809 47.0552C103.349 47.5608 102.993 48.1527 102.762 48.7967C102.532 49.4407 102.432 50.1239 102.467 50.807C102.433 51.489 102.534 52.1712 102.765 52.8139C102.996 53.4566 103.352 54.0472 103.812 54.5515C104.273 55.0558 104.829 55.4638 105.448 55.752C106.067 56.0401 106.737 56.2027 107.42 56.2304C108.015 56.2398 108.606 56.126 109.156 55.8963C109.706 55.6666 110.202 55.3258 110.614 54.8954V56.0119H113.161L113.16 45.5926ZM110.492 50.8304C110.527 51.2022 110.485 51.5773 110.367 51.9318C110.249 52.2862 110.058 52.612 109.807 52.8884C109.556 53.1648 109.25 53.3857 108.908 53.5368C108.567 53.6879 108.197 53.766 107.824 53.766C107.45 53.766 107.081 53.6879 106.739 53.5368C106.398 53.3857 106.091 53.1648 105.84 52.8884C105.589 52.612 105.398 52.2862 105.28 51.9318C105.163 51.5773 105.12 51.2022 105.156 50.8304C105.112 50.4541 105.149 50.0729 105.263 49.7117C105.377 49.3506 105.566 49.0177 105.818 48.7349C106.07 48.452 106.379 48.2257 106.725 48.0707C107.07 47.9158 107.445 47.8357 107.824 47.8357C108.202 47.8357 108.577 47.9158 108.923 48.0707C109.268 48.2257 109.577 48.452 109.829 48.7349C110.081 49.0177 110.27 49.3506 110.385 49.7117C110.499 50.0729 110.535 50.4541 110.492 50.8304V50.8304ZM125.106 40.9604H122.438V46.5854C121.612 45.795 120.509 45.3596 119.366 45.3723C118.683 45.4008 118.012 45.5644 117.392 45.8537C116.772 46.1431 116.216 46.5524 115.756 47.058C115.295 47.5636 114.939 48.1556 114.709 48.7995C114.479 49.4435 114.378 50.1267 114.413 50.8098C114.379 51.4916 114.481 52.1734 114.712 52.8158C114.943 53.4582 115.299 54.0484 115.76 54.5524C116.22 55.0564 116.776 55.4642 117.395 55.7522C118.014 56.0402 118.684 56.2027 119.366 56.2304C119.961 56.2377 120.552 56.1231 121.101 55.8935C121.651 55.6639 122.147 55.3242 122.56 54.8954V56.0119H125.107L125.106 40.9604ZM122.438 50.8304C122.474 51.2022 122.431 51.5773 122.313 51.9318C122.196 52.2862 122.005 52.612 121.754 52.8884C121.502 53.1648 121.196 53.3857 120.855 53.5368C120.513 53.6879 120.144 53.766 119.77 53.766C119.397 53.766 119.027 53.6879 118.686 53.5368C118.344 53.3857 118.038 53.1648 117.787 52.8884C117.536 52.612 117.345 52.2862 117.227 51.9318C117.109 51.5773 117.067 51.2022 117.102 50.8304C117.059 50.4541 117.095 50.0729 117.209 49.7117C117.323 49.3506 117.513 49.0177 117.765 48.7349C118.017 48.452 118.326 48.2257 118.671 48.0707C119.017 47.9158 119.391 47.8357 119.77 47.8357C120.149 47.8357 120.523 47.9158 120.869 48.0707C121.215 48.2257 121.524 48.452 121.776 48.7349C122.028 49.0177 122.217 49.3506 122.331 49.7117C122.445 50.0729 122.482 50.4541 122.438 50.8304V50.8304Z" fill="#707070"/>
</g>
<defs>
<clipPath id="clip0_948_1134">
<rect width="128" height="60" fill="white"/>
</clipPath>
</defs>
</svg>
