<svg width="121" height="65" viewBox="0 0 121 65" fill="none" xmlns="http://www.w3.org/2000/svg">
<g clip-path="url(#clip0_948_1051)">
<path d="M119.666 51.481L96.4889 6.69648C94.4897 2.72098 90.3939 0 85.6394 0H85.6279C80.8791 0 76.7776 2.72098 74.7784 6.69648L58.4639 38.2198C56.6423 34.9775 53.738 32.4341 50.2322 31.0593C54.1447 28.2295 56.6938 23.6181 56.6938 18.4168C56.6938 12.3848 53.2683 7.16621 48.2617 4.57698C43.8508 2.25698 38.8155 0.945184 33.4767 0.945184H9.07376C4.0557 0.945184 0 5.00088 0 10.0075V55.4221C0 60.4287 4.0557 64.4844 9.07376 64.4844H35.4644C40.5512 64.4844 45.3917 63.4304 49.7854 61.5515L51.4581 60.7438C51.5498 60.698 51.6414 60.6522 51.7331 60.6063C53.3198 63.2357 56.1897 65.0057 59.495 65.0057C63.1669 65.0057 66.329 62.8289 67.7554 59.6841C68.4657 58.0228 70.0696 56.8485 71.96 56.7568H99.3016C101.198 56.8485 102.796 58.0228 103.506 59.6841C104.927 62.8289 108.095 65.0057 111.767 65.0057C116.779 65.0057 120.835 60.9386 120.835 55.9491C120.835 54.3223 120.416 52.7985 119.66 51.4867" fill="#FFD305"/>
</g>
<defs>
<clipPath id="clip0_948_1051">
<rect width="120.84" height="65" fill="white"/>
</clipPath>
</defs>
</svg>
